0
SECTION
2
HEADER
9
$INSUNITS
70
4
9
$ACADVER
1
AC1014
9
$HANDSEED
5
FFFF
0
ENDSEC
0
SECTION
2
TABLES
0
TABLE
2
VPORT
5
8
100
AcDbSymbolTable
0
ENDTAB
0
TABLE
2
LTYPE
5
5
100
AcDbSymbolTable
0
LTYPE
5
14
100
AcDbSymbolTableRecord
100
AcDbLinetypeTableRecord
2
BYBLOCK
70
0
0
LTYPE
5
15
100
AcDbSymbolTableRecord
100
AcDbLinetypeTableRecord
2
BYLAYER
70
0
0
ENDTAB
0
TABLE
2
LAYER
5
2
100
AcDbSymbolTable
70
2
0
LAYER
5
50
100
AcDbSymbolTableRecord
100
AcDbLayerTableRecord
2
0
70
0
6
CONTINUOUS
0
ENDTAB
0
TABLE
2
STYLE
5
3
100
AcDbSymbolTable
70
1
0
STYLE
5
11
100
AcDbSymbolTableRecord
100
AcDbTextStyleTableRecord
2
STANDARD
70
0
0
ENDTAB
0
TABLE
2
VIEW
5
6
100
AcDbSymbolTable
70
0
0
ENDTAB
0
TABLE
2
UCS
5
7
100
AcDbSymbolTable
70
0
0
ENDTAB
0
TABLE
2
APPID
5
9
100
AcDbSymbolTable
70
2
0
APPID
5
12
100
AcDbSymbolTableRecord
100
AcDbRegAppTableRecord
2
ACAD
70
0
0
ENDTAB
0
TABLE
2
DIMSTYLE
5
A
100
AcDbSymbolTable
70
1
0
ENDTAB
0
TABLE
2
BLOCK_RECORD
5
1
100
AcDbSymbolTable
70
1
0
BLOCK_RECORD
5
1F
100
AcDbSymbolTableRecord
100
AcDbBlockTableRecord
2
*MODEL_SPACE
0
BLOCK_RECORD
5
1B
100
AcDbSymbolTableRecord
100
AcDbBlockTableRecord
2
*PAPER_SPACE
0
ENDTAB
0
ENDSEC
0
SECTION
2
BLOCKS
0
BLOCK
5
20
100
AcDbEntity
100
AcDbBlockBegin
2
*MODEL_SPACE
0
ENDBLK
5
21
100
AcDbEntity
100
AcDbBlockEnd
0
BLOCK
5
1C
100
AcDbEntity
100
AcDbBlockBegin
2
*PAPER_SPACE
0
ENDBLK
5
1D
100
AcDbEntity
100
AcDbBlockEnd
0
ENDSEC
0
SECTION
2
ENTITIES
0
CIRCLE
5
100
100
AcDbEntity
8
0
100
AcDbCircle
10
0
20
0
30
0
40
36
210
0
220
0
230
1
0
LINE
5
101
100
AcDbEntity
8
0
100
AcDbLine
10
-14.500000000000007
20
23.951291520020455
30
0
11
8.4999999999999964
21
23.951291520020455
31
0
0
LINE
5
102
100
AcDbEntity
8
0
100
AcDbLine
10
8.4999999999999964
20
23.951291520020455
30
0
11
8.5000000000000018
21
-0.048708479979549524
31
0
0
LINE
5
103
100
AcDbEntity
8
0
100
AcDbLine
10
8.5000000000000018
20
-0.048708479979549524
30
0
11
-14.500000000000007
21
-0.048708479979549524
31
0
0
LINE
5
104
100
AcDbEntity
8
0
100
AcDbLine
10
-14.500000000000007
20
-0.048708479979549524
30
0
11
-14.500000000000007
21
23.951291520020455
31
0
0
LINE
5
105
100
AcDbEntity
8
0
100
AcDbLine
10
-14.500000000000007
20
23.951291520020455
30
0
11
8.5000000000000018
21
-0.048708479979549524
31
0
0
LINE
5
106
100
AcDbEntity
8
0
100
AcDbLine
10
8.4999999999999964
20
23.951291520020455
30
0
11
-14.500000000000007
21
-0.048708479979549524
31
0
0
LINE
5
107
100
AcDbEntity
8
0
100
AcDbLine
10
0
20
0
30
0
11
0
21
52.000000774860382
31
0
0
CIRCLE
5
108
100
AcDbEntity
8
0
100
AcDbCircle
10
-14.500000000000007
20
23.951291520020455
30
0
40
1.5000000000000002
210
0
220
0
230
1
0
CIRCLE
5
109
100
AcDbEntity
8
0
100
AcDbCircle
10
8.4999999999999964
20
23.951291520020455
30
0
40
1.5000000000000002
210
0
220
0
230
1
0
CIRCLE
5
110
100
AcDbEntity
8
0
100
AcDbCircle
10
-14.500000000000007
20
-0.048708479979549524
30
0
40
1.5000000000000002
210
0
220
0
230
1
0
CIRCLE
5
111
100
AcDbEntity
8
0
100
AcDbCircle
10
8.5000000000000018
20
-0.048708479979549524
30
0
40
1.5000000000000002
210
0
220
0
230
1
0
LINE
5
112
100
AcDbEntity
8
0
100
AcDbLine
10
23.499999999999996
20
26.951291520020458
30
0
11
-23.500000000000007
21
26.951291520020458
31
0
0
LINE
5
113
100
AcDbEntity
8
0
100
AcDbLine
10
-23.500000000000007
20
26.951291520020458
30
0
11
-23.500000000000007
21
-20.109871125965931
31
0
0
LINE
5
114
100
AcDbEntity
8
0
100
AcDbLine
10
-23.500000000000007
20
-20.109871125965931
30
0
11
23.499999999999996
21
-20.109871125965931
31
0
0
LINE
5
115
100
AcDbEntity
8
0
100
AcDbLine
10
23.499999999999996
20
-20.109871125965931
30
0
11
23.499999999999996
21
26.951291520020458
31
0
0
LINE
5
116
100
AcDbEntity
8
0
100
AcDbLine
10
23.499999999999996
20
26.951291520020458
30
0
11
-23.500000000000007
21
-20.109871125965931
31
0
0
LINE
5
117
100
AcDbEntity
8
0
100
AcDbLine
10
-23.500000000000007
20
26.951291520020458
30
0
11
23.499999999999996
21
-20.109871125965931
31
0
0
LINE
5
118
100
AcDbEntity
8
0
100
AcDbLine
10
34.499999999999986
20
-22.048708479979556
30
0
11
-34.500000000000014
21
-22.048708479979556
31
0
0
LINE
5
119
100
AcDbEntity
8
0
100
AcDbLine
10
-34.500000000000014
20
-22.048708479979556
30
0
11
-34.499999999999979
21
-2.0487084799795499
31
0
0
LINE
5
120
100
AcDbEntity
8
0
100
AcDbLine
10
-34.499999999999979
20
-2.0487084799795499
30
0
11
34.499999999999986
21
-2.0487084799795587
31
0
0
LINE
5
121
100
AcDbEntity
8
0
100
AcDbLine
10
34.499999999999986
20
-2.0487084799795587
30
0
11
34.499999999999986
21
-22.048708479979556
31
0
0
LINE
5
122
100
AcDbEntity
8
0
100
AcDbLine
10
34.499999999999986
20
-22.048708479979556
30
0
11
-34.499999999999979
21
-2.0487084799795499
31
0
0
LINE
5
123
100
AcDbEntity
8
0
100
AcDbLine
10
-34.500000000000014
20
-22.048708479979556
30
0
11
34.499999999999986
21
-2.0487084799795587
31
0
0
LINE
5
124
100
AcDbEntity
8
0
100
AcDbLine
10
29.000000000000007
20
-5.0487084799795507
30
0
11
-29
21
-5.0487084799795507
31
0
0
LINE
5
125
100
AcDbEntity
8
0
100
AcDbLine
10
-29
20
-5.0487084799795507
30
0
11
-29
21
-19.048708479979556
31
0
0
LINE
5
126
100
AcDbEntity
8
0
100
AcDbLine
10
-29
20
-19.048708479979556
30
0
11
29.000000000000007
21
-19.048708479979556
31
0
0
LINE
5
127
100
AcDbEntity
8
0
100
AcDbLine
10
29.000000000000007
20
-19.048708479979556
30
0
11
29.000000000000007
21
-5.0487084799795507
31
0
0
LINE
5
128
100
AcDbEntity
8
0
100
AcDbLine
10
29.000000000000007
20
-5.0487084799795507
30
0
11
-29
21
-19.048708479979556
31
0
0
LINE
5
129
100
AcDbEntity
8
0
100
AcDbLine
10
-29
20
-5.0487084799795507
30
0
11
29.000000000000007
21
-19.048708479979556
31
0
0
CIRCLE
5
130
100
AcDbEntity
8
0
100
AcDbCircle
10
-28.500000000000007
20
2.9512915200204501
30
0
40
1.5000000000000002
210
0
220
0
230
1
0
CIRCLE
5
131
100
AcDbEntity
8
0
100
AcDbCircle
10
28.500000000000007
20
2.9512915200204501
30
0
40
1.5000000000000002
210
0
220
0
230
1
0
CIRCLE
5
132
100
AcDbEntity
8
0
100
AcDbCircle
10
-17.000000000000011
20
-27.048708479979553
30
0
40
1.5000000000000002
210
0
220
0
230
1
0
CIRCLE
5
133
100
AcDbEntity
8
0
100
AcDbCircle
10
17.000000000000014
20
-27.048708479979553
30
0
40
1.5000000000000002
210
0
220
0
230
1
0
LINE
5
134
100
AcDbEntity
8
0
100
AcDbLine
10
1.4999999999999982
20
-31.048708479979549
30
0
11
-1.5000000000000022
21
-31.048708479979549
31
0
0
LINE
5
135
100
AcDbEntity
8
0
100
AcDbLine
10
-1.5000000000000022
20
-31.048708479979549
30
0
11
-1.5000000000000031
21
-33.048708479979553
31
0
0
LINE
5
136
100
AcDbEntity
8
0
100
AcDbLine
10
-1.5000000000000031
20
-33.048708479979553
30
0
11
1.4999999999999982
21
-33.048708479979553
31
0
0
LINE
5
137
100
AcDbEntity
8
0
100
AcDbLine
10
1.4999999999999982
20
-33.048708479979553
30
0
11
1.4999999999999982
21
-31.048708479979549
31
0
0
LINE
5
138
100
AcDbEntity
8
0
100
AcDbLine
10
1.4999999999999982
20
-31.048708479979549
30
0
11
-1.5000000000000031
21
-33.048708479979553
31
0
0
LINE
5
139
100
AcDbEntity
8
0
100
AcDbLine
10
-1.5000000000000022
20
-31.048708479979549
30
0
11
1.4999999999999982
21
-33.048708479979553
31
0
0
LWPOLYLINE
5
140
100
AcDbEntity
8
0
100
AcDbPolyline
90
4
70
1
43
0.0
10
-34.500000000000014
20
-22.048708479979556
10
34.499999999999986
20
-22.048708479979556
10
34.499999999999986
20
-2.0487084799795587
10
-34.499999999999979
20
-2.0487084799795507
0
LWPOLYLINE
5
141
100
AcDbEntity
8
0
100
AcDbPolyline
90
4
70
1
43
0.0
10
-34.500000000000014
20
-22.048708479979556
10
34.499999999999986
20
-22.048708479979556
10
34.499999999999986
20
-2.0487084799795587
10
-34.499999999999979
20
-2.0487084799795507
0
CIRCLE
5
142
100
AcDbEntity
8
0
100
AcDbCircle
10
-17.00000025331974
20
-107.04870847997955
30
0
40
1.5000000000000002
210
0
220
0
230
1
0
CIRCLE
5
143
100
AcDbEntity
8
0
100
AcDbCircle
10
17.00000025331974
20
-107.04870847997955
30
0
40
1.5000000000000002
210
0
220
0
230
1
0
CIRCLE
5
144
100
AcDbEntity
8
0
100
AcDbCircle
10
28.500000000000007
20
-77.048708479979553
30
0
40
1.5000000000000002
210
0
220
0
230
1
0
CIRCLE
5
145
100
AcDbEntity
8
0
100
AcDbCircle
10
-28.500000000000007
20
-77.048708479979553
30
0
40
1.5000000000000002
210
0
220
0
230
1
0
LINE
5
146
100
AcDbEntity
8
0
100
AcDbLine
10
20.168365837977884
20
-85.048708479979553
30
0
11
-20.168365837977895
21
-85.048708479979553
31
0
0
LINE
5
147
100
AcDbEntity
8
0
100
AcDbLine
10
-6.9019530079985705
20
-99.048708479979553
30
0
11
6.9019530079985847
21
-99.048708479979553
31
0
0
LINE
5
148
100
AcDbEntity
8
0
100
AcDbLine
10
7.4383500788591547e-16
20
-12.048708479979551
30
0
11
0
21
-140
31
0
0
LINE
5
149
100
AcDbEntity
8
0
100
AcDbLine
10
-31.485749807280705
20
-77.340766844520147
30
0
11
-29.485797390086432
21
-97.786534777204679
31
0
0
LINE
5
150
100
AcDbEntity
8
0
100
AcDbLine
10
-25.514250192715192
20
-76.756650115437978
30
0
11
-25.144615516786022
21
-80.535472420882115
31
0
0
LINE
5
151
100
AcDbEntity
8
0
100
AcDbLine
10
25.514250192715192
20
-76.756650115437964
30
0
11
25.144615516786022
21
-80.535472420882115
31
0
0
LINE
5
152
100
AcDbEntity
8
0
100
AcDbLine
10
31.485749807280648
20
-77.340766844520729
30
0
11
29.485797390086432
21
-97.786534777204693
31
0
0
LINE
5
153
100
AcDbEntity
8
0
100
AcDbLine
10
-14.260222226741707
20
-108.270844464672
30
0
11
-11.468249718962088
21
-102.01181517215886
31
0
0
LINE
5
154
100
AcDbEntity
8
0
100
AcDbLine
10
14.260222929435395
20
-108.27084603996707
30
0
11
11.468249718962113
21
-102.01181517215889
31
0
0
LINE
5
155
100
AcDbEntity
8
0
100
AcDbLine
10
18.222136238012478
20
-109.78848650655821
30
0
11
18.755063323220952
21
-109.55076309913898
31
0
0
LINE
5
156
100
AcDbEntity
8
0
100
AcDbLine
10
-18.755063323220831
20
-109.55076309913899
30
0
11
-18.222179630748393
21
-109.7884671503098
31
0
0
ARC
5
157
100
AcDbEntity
8
0
100
AcDbCircle
10
17.00000025331974
20
-107.04870847997955
30
0
40
3.0000000000005111
210
0
220
0
230
1
100
AcDbArc
50
204.04030538881099
51
294.04027244535462
0
ARC
5
158
100
AcDbEntity
8
0
100
AcDbCircle
10
-17.00000025331974
20
-107.04870847997955
30
0
40
3.0000000003769296
210
0
220
0
230
1
100
AcDbArc
50
245.95882010133877
51
335.95972755464572
0
ARC
5
159
100
AcDbEntity
8
0
100
AcDbCircle
10
0
20
-80
30
0
40
34.999999999999986
210
0
220
0
230
1
100
AcDbArc
50
215.21589790935255
51
237.5978178038695
0
ARC
5
160
100
AcDbEntity
8
0
100
AcDbCircle
10
0
20
-80
30
0
40
34.999999999992305
210
0
220
0
230
1
100
AcDbArc
50
302.40218219613064
51
324.78410209064725
0
ARC
5
161
100
AcDbEntity
8
0
100
AcDbCircle
10
-24.509547711278302
20
-97.299770836301974
30
0
40
5.0000000000001137
210
0
220
0
230
1
100
AcDbArc
50
185.58675250204962
51
215.21589790935226
0
ARC
5
162
100
AcDbEntity
8
0
100
AcDbCircle
10
-6.9019530079985705
20
-104.04870847997971
30
0
40
5.0000000000001599
210
0
220
-0
230
1
100
AcDbArc
50
90
51
155.95972755464513
0
ARC
5
163
100
AcDbEntity
8
0
100
AcDbCircle
10
6.9019530079985856
20
-104.04870847997971
30
0
40
5.0000000000001554
210
0
220
-0
230
1
100
AcDbArc
50
24.040272445354557
51
90.000000000000014
0
ARC
5
164
100
AcDbEntity
8
0
100
AcDbCircle
10
24.509547711278476
20
-97.299770836302116
30
0
40
4.999999999999921
210
-0
220
0
230
1
100
AcDbArc
50
324.78410209064674
51
354.41324749795172
0
ARC
5
165
100
AcDbEntity
8
0
100
AcDbCircle
10
20.168365837977898
20
-80.048708479979439
30
0
40
5.0000000000001066
210
0
220
0
230
1
100
AcDbArc
50
269.99999999999983
51
354.41324749795069
0
ARC
5
166
100
AcDbEntity
8
0
100
AcDbCircle
10
-20.16836583797792
20
-80.048708479979481
30
0
40
5.0000000000000799
210
0
220
0
230
1
100
AcDbArc
50
185.58675250204882
51
270.00000000000034
0
ARC
5
167
100
AcDbEntity
8
0
100
AcDbCircle
10
-28.500000000000007
20
-77.048708479979553
30
0
40
3.0000000000000009
210
0
220
-0
230
1
100
AcDbArc
50
5.5867525020488458
51
185.5867525020378
0
ARC
5
168
100
AcDbEntity
8
0
100
AcDbCircle
10
28.500000000000007
20
-77.048708479979553
30
0
40
2.9999999999958122
210
0
220
0
230
1
100
AcDbArc
50
-5.5867525020489692
51
174.41324749795089
0
LINE
5
169
100
AcDbEntity
8
0
100
AcDbLine
10
24.750941532933805
20
-82.048708479979553
30
0
11
24.996594658672908
21
-82.048708479979553
31
0
0
ENDSEC
0
SECTION
2
OBJECTS
0
DICTIONARY
5
C
100
AcDbDictionary
3
ACAD_GROUP
350
D
3
ACAD_MLINESTYLE
350
17
0
DICTIONARY
5
D
100
AcDbDictionary
0
DICTIONARY
5
1A
330
C
100
AcDbDictionary
0
DICTIONARY
5
17
100
AcDbDictionary
0
ENDSEC
0
EOF
