  0
SECTION
  2
HEADER
  9
$ACADVER
  1
AC1015
  9
$ACADMAINTVER
 70
     6
  9
$DWGCODEPAGE
  3
ANSI_1252
  9
$INSBASE
 10
0.0
 20
0.0
 30
0.0
  9
$EXTMIN
 10
-11.0
 20
-11.0
 30
0.0
  9
$EXTMAX
 10
11.0
 20
11.0
 30
0.0
  9
$LIMMIN
 10
0.0
 20
0.0
  9
$LIMMAX
 10
420.0
 20
297.0
  9
$ORTHOMODE
 70
     0
  9
$REGENMODE
 70
     1
  9
$FILLMODE
 70
     1
  9
$QTEXTMODE
 70
     0
  9
$MIRRTEXT
 70
     1
  9
$LTSCALE
 40
1.0
  9
$ATTMODE
 70
     1
  9
$TEXTSIZE
 40
3.5
  9
$TRACEWID
 40
1.0
  9
$TEXTSTYLE
  7
Standard
  9
$CLAYER
  8
0
  9
$CELTYPE
  6
ByLayer
  9
$CECOLOR
 62
   256
  9
$CELTSCALE
 40
1.0
  9
$DISPSILH
 70
     0
  9
$DIMSCALE
 40
1.0
  9
$DIMASZ
 40
3.302
  9
$DIMEXO
 40
1.0
  9
$DIMDLI
 40
3.75
  9
$DIMRND
 40
0.0
  9
$DIMDLE
 40
0.0
  9
$DIMEXE
 40
1.0
  9
$DIMTP
 40
0.0
  9
$DIMTM
 40
0.0
  9
$DIMTXT
 40
3.5
  9
$DIMCEN
 40
2.5
  9
$DIMTSZ
 40
0.0
  9
$DIMTOL
 70
     0
  9
$DIMLIM
 70
     0
  9
$DIMTIH
 70
     1
  9
$DIMTOH
 70
     1
  9
$DIMSE1
 70
     0
  9
$DIMSE2
 70
     0
  9
$DIMTAD
 70
     1
  9
$DIMZIN
 70
     1
  9
$DIMBLK
  1

  9
$DIMASO
 70
     1
  9
$DIMSHO
 70
     1
  9
$DIMPOST
  1

  9
$DIMAPOST
  1

  9
$DIMALT
 70
     0
  9
$DIMALTD
 70
     3
  9
$DIMALTF
 40
0.0393700787
  9
$DIMLFAC
 40
1.0
  9
$DIMTOFL
 70
     1
  9
$DIMTVP
 40
0.0
  9
$DIMTIX
 70
     0
  9
$DIMSOXD
 70
     0
  9
$DIMSAH
 70
     0
  9
$DIMBLK1
  1

  9
$DIMBLK2
  1

  9
$DIMSTYLE
  2
ISO-25
  9
$DIMCLRD
 70
     0
  9
$DIMCLRE
 70
     0
  9
$DIMCLRT
 70
     0
  9
$DIMTFAC
 40
1.0
  9
$DIMGAP
 40
1.524
  9
$DIMJUST
 70
     0
  9
$DIMSD1
 70
     0
  9
$DIMSD2
 70
     0
  9
$DIMTOLJ
 70
     0
  9
$DIMTZIN
 70
     1
  9
$DIMALTZ
 70
     0
  9
$DIMALTTZ
 70
     0
  9
$DIMUPT
 70
     0
  9
$DIMDEC
 70
     2
  9
$DIMTDEC
 70
     2
  9
$DIMALTU
 70
     2
  9
$DIMALTTD
 70
     3
  9
$DIMTXSTY
  7
Standard
  9
$DIMAUNIT
 70
     0
  9
$DIMADEC
 70
     2
  9
$DIMALTRND
 40
0.0
  9
$DIMAZIN
 70
     0
  9
$DIMDSEP
 70
    44
  9
$DIMATFIT
 70
     3
  9
$DIMFRAC
 70
     0
  9
$DIMLDRBLK
  1

  9
$DIMLUNIT
 70
     2
  9
$DIMLWD
 70
    -2
  9
$DIMLWE
 70
    -2
  9
$DIMTMOVE
 70
     0
  9
$LUNITS
 70
     2
  9
$LUPREC
 70
     2
  9
$SKETCHINC
 40
1.0
  9
$FILLETRAD
 40
10.0
  9
$AUNITS
 70
     0
  9
$AUPREC
 70
     2
  9
$MENU
  1
.
  9
$ELEVATION
 40
0.0
  9
$PELEVATION
 40
0.0
  9
$THICKNESS
 40
0.0
  9
$LIMCHECK
 70
     0
  9
$CHAMFERA
 40
0.0
  9
$CHAMFERB
 40
0.0
  9
$CHAMFERC
 40
0.0
  9
$CHAMFERD
 40
0.0
  9
$SKPOLY
 70
     0
  9
$TDCREATE
 40
2458970.596277164
  9
$TDUCREATE
 40
2458970.512943831
  9
$TDUPDATE
 40
2458970.596325231
  9
$TDUUPDATE
 40
2458970.512991898
  9
$TDINDWG
 40
0.0000000116
  9
$TDUSRTIMER
 40
0.0000000116
  9
$USRTIMER
 70
     1
  9
$ANGBASE
 50
0.0
  9
$ANGDIR
 70
     0
  9
$PDMODE
 70
     0
  9
$PDSIZE
 40
-1.0
  9
$PLINEWID
 40
0.0
  9
$SPLFRAME
 70
     0
  9
$SPLINETYPE
 70
     6
  9
$SPLINESEGS
 70
     8
  9
$HANDSEED
  5
79
  9
$SURFTAB1
 70
     6
  9
$SURFTAB2
 70
     6
  9
$SURFTYPE
 70
     6
  9
$SURFU
 70
     6
  9
$SURFV
 70
     6
  9
$UCSBASE
  2

  9
$UCSNAME
  2

  9
$UCSORG
 10
0.0
 20
0.0
 30
0.0
  9
$UCSXDIR
 10
1.0
 20
0.0
 30
0.0
  9
$UCSYDIR
 10
0.0
 20
1.0
 30
0.0
  9
$UCSORTHOREF
  2

  9
$UCSORTHOVIEW
 70
     0
  9
$UCSORGTOP
 10
0.0
 20
0.0
 30
0.0
  9
$UCSORGBOTTOM
 10
0.0
 20
0.0
 30
0.0
  9
$UCSORGLEFT
 10
0.0
 20
0.0
 30
0.0
  9
$UCSORGRIGHT
 10
0.0
 20
0.0
 30
0.0
  9
$UCSORGFRONT
 10
0.0
 20
0.0
 30
0.0
  9
$UCSORGBACK
 10
0.0
 20
0.0
 30
0.0
  9
$PUCSBASE
  2

  9
$PUCSNAME
  2

  9
$PUCSORG
 10
0.0
 20
0.0
 30
0.0
  9
$PUCSXDIR
 10
1.0
 20
0.0
 30
0.0
  9
$PUCSYDIR
 10
0.0
 20
1.0
 30
0.0
  9
$PUCSORTHOREF
  2

  9
$PUCSORTHOVIEW
 70
     0
  9
$PUCSORGTOP
 10
0.0
 20
0.0
 30
0.0
  9
$PUCSORGBOTTOM
 10
0.0
 20
0.0
 30
0.0
  9
$PUCSORGLEFT
 10
0.0
 20
0.0
 30
0.0
  9
$PUCSORGRIGHT
 10
0.0
 20
0.0
 30
0.0
  9
$PUCSORGFRONT
 10
0.0
 20
0.0
 30
0.0
  9
$PUCSORGBACK
 10
0.0
 20
0.0
 30
0.0
  9
$USERI1
 70
     0
  9
$USERI2
 70
     0
  9
$USERI3
 70
     0
  9
$USERI4
 70
     0
  9
$USERI5
 70
     0
  9
$USERR1
 40
0.0
  9
$USERR2
 40
0.0
  9
$USERR3
 40
0.0
  9
$USERR4
 40
0.0
  9
$USERR5
 40
0.0
  9
$WORLDVIEW
 70
     1
  9
$SHADEDGE
 70
     3
  9
$SHADEDIF
 70
    70
  9
$TILEMODE
 70
     1
  9
$MAXACTVP
 70
    64
  9
$PINSBASE
 10
0.0
 20
0.0
 30
0.0
  9
$PLIMCHECK
 70
     0
  9
$PEXTMIN
 10
1.0000000000E+20
 20
1.0000000000E+20
 30
1.0000000000E+20
  9
$PEXTMAX
 10
-1.0000000000E+20
 20
-1.0000000000E+20
 30
-1.0000000000E+20
  9
$PLIMMIN
 10
0.0
 20
0.0
  9
$PLIMMAX
 10
420.0
 20
297.0
  9
$UNITMODE
 70
     0
  9
$VISRETAIN
 70
     1
  9
$PLINEGEN
 70
     0
  9
$PSLTSCALE
 70
     1
  9
$TREEDEPTH
 70
  3020
  9
$CMLSTYLE
  2
Standard
  9
$CMLJUST
 70
     0
  9
$CMLSCALE
 40
20.0
  9
$PROXYGRAPHICS
 70
     1
  9
$MEASUREMENT
 70
     1
  9
$CELWEIGHT
370
    -1
  9
$ENDCAPS
280
     0
  9
$JOINSTYLE
280
     0
  9
$LWDISPLAY
290
     1
  9
$INSUNITS
 70
     4
  9
$HYPERLINKBASE
  1

  9
$STYLESHEET
  1

  9
$XEDIT
290
     1
  9
$CEPSNTYPE
380
     0
  9
$PSTYLEMODE
290
     1
  9
$FINGERPRINTGUID
  2
{7E04C9C7-2FD5-4023-8CA3-D04B3D9E80D7}
  9
$VERSIONGUID
  2
{FAEB1C32-E019-11D5-929B-00C0DF256EC4}
  9
$EXTNAMES
290
     1
  9
$PSVPSCALE
 40
0.0
  9
$OLESTARTUP
290
     0
  0
ENDSEC
  0
SECTION
  2
CLASSES
  0
CLASS
  1
ACDBDICTIONARYWDFLT
  2
AcDbDictionaryWithDefault
  3
ObjectDBX Classes
 90
        0
280
     0
281
     0
  0
CLASS
  1
VISUALSTYLE
  2
AcDbVisualStyle
  3
ObjectDBX Classes
 90
     4095
280
     0
281
     0
  0
CLASS
  1
MATERIAL
  2
AcDbMaterial
  3
ObjectDBX Classes
 90
     1153
280
     0
281
     0
  0
CLASS
  1
SCALE
  2
AcDbScale
  3
ObjectDBX Classes
 90
     1153
280
     0
281
     0
  0
CLASS
  1
TABLESTYLE
  2
AcDbTableStyle
  3
ObjectDBX Classes
 90
     4095
280
     0
281
     0
  0
CLASS
  1
MLEADERSTYLE
  2
AcDbMLeaderStyle
  3
ACDB_MLEADERSTYLE_CLASS
 90
     4095
280
     0
281
     0
  0
CLASS
  1
SUN
  2
AcDbSun
  3
SCENEOE
 90
     1153
280
     0
281
     0
  0
CLASS
  1
ACDBPLACEHOLDER
  2
AcDbPlaceHolder
  3
ObjectDBX Classes
 90
        0
280
     0
281
     0
  0
CLASS
  1
LAYOUT
  2
AcDbLayout
  3
ObjectDBX Classes
 90
        0
280
     0
281
     0
  0
ENDSEC
  0
SECTION
  2
TABLES
  0
TABLE
  2
VPORT
  5
8
330
0
100
AcDbSymbolTable
 70
     1
  0
VPORT
  5
29
330
8
100
AcDbSymbolTableRecord
100
AcDbViewportTableRecord
  2
*Active
 70
     0
 10
0.0
 20
0.0
 11
1.0
 21
1.0
 12
0.0
 22
0.0
 13
0.0
 23
0.0
 14
10.0
 24
10.0
 15
10.0
 25
10.0
 16
0.0
 26
0.0
 36
1.0
 17
0.0
 27
0.0
 37
0.0
 40
22.44
 41
1.0
 42
50.0
 43
0.0
 44
0.0
 50
0.0
 51
0.0
 71
     0
 72
   100
 73
     1
 74
     3
 75
     0
 76
     0
 77
     0
 78
     0
281
     0
 65
     1
110
0.0
120
0.0
130
0.0
111
1.0
121
0.0
131
0.0
112
0.0
122
1.0
132
0.0
 79
     0
146
0.0
  0
ENDTAB
  0
TABLE
  2
LTYPE
  5
5
330
0
100
AcDbSymbolTable
 70
     6
  0
LTYPE
  5
14
330
5
100
AcDbSymbolTableRecord
100
AcDbLinetypeTableRecord
  2
ByBlock
 70
     0
  3

 72
    65
 73
     0
 40
0.0
  0
LTYPE
  5
15
330
5
100
AcDbSymbolTableRecord
100
AcDbLinetypeTableRecord
  2
ByLayer
 70
     0
  3

 72
    65
 73
     0
 40
0.0
  0
LTYPE
  5
16
330
5
100
AcDbSymbolTableRecord
100
AcDbLinetypeTableRecord
  2
Continuous
 70
     0
  3
Solid line
 72
    65
 73
     0
 40
0.0
  0
LTYPE
  5
6E
330
5
100
AcDbSymbolTableRecord
100
AcDbLinetypeTableRecord
  2
HIDDEN
 70
     0
  3
Hidden __ __ __ __ __ __ __ __ __ __ __ __ __ __
 72
    65
 73
     2
 40
1.905
 49
1.27
 74
     0
 49
-0.635
 74
     0
  0
LTYPE
  5
6F
330
5
100
AcDbSymbolTableRecord
100
AcDbLinetypeTableRecord
  2
PHANTOM
 70
     0
  3
Phantom ______  __  __  ______  __  __  ______
 72
    65
 73
     6
 40
12.7
 49
6.35
 74
     0
 49
-1.27
 74
     0
 49
1.27
 74
     0
 49
-1.27
 74
     0
 49
1.27
 74
     0
 49
-1.27
 74
     0
  0
LTYPE
  5
70
330
5
100
AcDbSymbolTableRecord
100
AcDbLinetypeTableRecord
  2
CENTER
 70
     0
  3
Center ____ _ ____ _ ____ _ ____ _ ____ _ ____
 72
    65
 73
     4
 40
10.16
 49
6.35
 74
     0
 49
-1.27
 74
     0
 49
1.27
 74
     0
 49
-1.27
 74
     0
  0
LTYPE
  5
71
330
5
100
AcDbSymbolTableRecord
100
AcDbLinetypeTableRecord
  2
CENTERX2
 70
     0
  3
Center (2x) ________  __  ________  __  _____
 72
    65
 73
     4
 40
20.32
 49
12.7
 74
     0
 49
-2.54
 74
     0
 49
2.54
 74
     0
 49
-2.54
 74
     0
  0
LTYPE
  5
72
330
5
100
AcDbSymbolTableRecord
100
AcDbLinetypeTableRecord
  2
DOT2
 70
     0
  3
Dot (.5x) ........................................
 72
    65
 73
     2
 40
0.635
 49
0.0
 74
     0
 49
-0.635
 74
     0
  0
ENDTAB
  0
TABLE
  2
LAYER
  5
2
330
0
100
AcDbSymbolTable
 70
     1
  0
LAYER
  5
10
330
2
100
AcDbSymbolTableRecord
100
AcDbLayerTableRecord
  2
0
 70
     0
 62
     7
  6
Continuous
370
    -3
390
F
  0
ENDTAB
  0
TABLE
  2
STYLE
  5
3
330
0
100
AcDbSymbolTable
 70
     1
  0
STYLE
  5
11
330
3
100
AcDbSymbolTableRecord
100
AcDbTextStyleTableRecord
  2
Standard
 70
     0
 40
0.0
 41
1.0
 50
0.0
 71
     0
 42
3.5
  3
txt
  4

  0
ENDTAB
  0
TABLE
  2
VIEW
  5
6
330
0
100
AcDbSymbolTable
 70
     0
  0
ENDTAB
  0
TABLE
  2
UCS
  5
7
330
0
100
AcDbSymbolTable
 70
     0
  0
ENDTAB
  0
TABLE
  2
APPID
  5
9
330
0
100
AcDbSymbolTable
 70
     1
  0
APPID
  5
12
330
9
100
AcDbSymbolTableRecord
100
AcDbRegAppTableRecord
  2
ACAD
 70
     0
  0
ENDTAB
  0
TABLE
  2
DIMSTYLE
  5
A
330
0
100
AcDbSymbolTable
 70
     1
100
AcDbDimStyleTable
  0
DIMSTYLE
105
27
330
A
100
AcDbSymbolTableRecord
100
AcDbDimStyleTableRecord
  2
ISO-25
 70
     0
 41
2.5
 42
0.625
 43
3.75
 44
1.25
 73
     0
 74
     0
 77
     1
 78
     8
140
2.5
141
2.5
143
0.0393700787
147
0.625
171
     3
172
     1
178
     0
271
     2
272
     2
274
     3
278
    44
283
     0
284
     8
340
11
  0
ENDTAB
  0
TABLE
  2
BLOCK_RECORD
  5
1
330
0
100
AcDbSymbolTable
 70
     1
  0
BLOCK_RECORD
  5
1F
330
1
100
AcDbSymbolTableRecord
100
AcDbBlockTableRecord
  2
*Model_Space
340
22
  0
BLOCK_RECORD
  5
1B
330
1
100
AcDbSymbolTableRecord
100
AcDbBlockTableRecord
  2
*Paper_Space
340
1E
  0
BLOCK_RECORD
  5
23
330
1
100
AcDbSymbolTableRecord
100
AcDbBlockTableRecord
  2
*Paper_Space0
340
26
  0
ENDTAB
  0
ENDSEC
  0
SECTION
  2
BLOCKS
  0
BLOCK
  5
20
330
1F
100
AcDbEntity
  8
0
100
AcDbBlockBegin
  2
*Model_Space
 70
     0
 10
0.0
 20
0.0
 30
0.0
  3
*Model_Space
  1

  0
ENDBLK
  5
21
330
1F
100
AcDbEntity
  8
0
100
AcDbBlockEnd
  0
BLOCK
  5
1C
330
1B
100
AcDbEntity
 67
     1
  8
0
100
AcDbBlockBegin
  2
*Paper_Space
 70
     0
 10
0.0
 20
0.0
 30
0.0
  3
*Paper_Space
  1

  0
ENDBLK
  5
1D
330
1B
100
AcDbEntity
 67
     1
  8
0
100
AcDbBlockEnd
  0
BLOCK
  5
24
330
23
100
AcDbEntity
  8
0
100
AcDbBlockBegin
  2
*Paper_Space0
 70
     0
 10
0.0
 20
0.0
 30
0.0
  3
*Paper_Space0
  1

  0
ENDBLK
  5
25
330
23
100
AcDbEntity
  8
0
100
AcDbBlockEnd
  0
ENDSEC
  0
SECTION
  2
ENTITIES
  0
LINE
  5
73
330
1F
100
AcDbEntity
  8
0
  6
Continuous
 62
     7
370
    25
100
AcDbLine
 10
9.5
 20
-0.0000246132
 30
0.0
 11
9.4999629679
 21
-0.0000027392
 31
0.0
  0
ARC
  5
74
330
1F
100
AcDbEntity
  8
0
  6
Continuous
 62
     7
370
    25
100
AcDbCircle
 10
0.0
 20
0.0
 30
0.0
 40
9.5
100
AcDbArc
 50
154.6778449635
 51
359.9998515547
  0
SPLINE
  5
75
330
1F
100
AcDbEntity
  8
0
  6
Continuous
 62
     7
370
    25
100
AcDbSpline
210
0.0
220
0.0
230
1.0
 70
     8
 71
     3
 72
   138
 73
   134
 74
     0
 42
0.000000001
 43
0.00000001
 40
0.0
 40
0.0
 40
0.0
 40
0.0
 40
0.0078125
 40
0.0078125
 40
0.015625
 40
0.015625
 40
0.03125
 40
0.03125
 40
0.046875
 40
0.046875
 40
0.0625
 40
0.0625
 40
0.078125
 40
0.078125
 40
0.09375
 40
0.09375
 40
0.109375
 40
0.109375
 40
0.125
 40
0.125
 40
0.140625
 40
0.140625
 40
0.15625
 40
0.15625
 40
0.171875
 40
0.171875
 40
0.1875
 40
0.1875
 40
0.203125
 40
0.203125
 40
0.21875
 40
0.21875
 40
0.234375
 40
0.234375
 40
0.25
 40
0.25
 40
0.265625
 40
0.265625
 40
0.28125
 40
0.28125
 40
0.296875
 40
0.296875
 40
0.3125
 40
0.3125
 40
0.328125
 40
0.328125
 40
0.34375
 40
0.34375
 40
0.359375
 40
0.359375
 40
0.375
 40
0.375
 40
0.390625
 40
0.390625
 40
0.40625
 40
0.40625
 40
0.421875
 40
0.421875
 40
0.4375
 40
0.4375
 40
0.453125
 40
0.453125
 40
0.46875
 40
0.46875
 40
0.484375
 40
0.484375
 40
0.5
 40
0.5
 40
0.515625
 40
0.515625
 40
0.53125
 40
0.53125
 40
0.546875
 40
0.546875
 40
0.5625
 40
0.5625
 40
0.578125
 40
0.578125
 40
0.59375
 40
0.59375
 40
0.609375
 40
0.609375
 40
0.6171875
 40
0.6171875
 40
0.625
 40
0.625
 40
0.6328125
 40
0.6328125
 40
0.640625
 40
0.640625
 40
0.6484375
 40
0.6484375
 40
0.65625
 40
0.65625
 40
0.6640625
 40
0.6640625
 40
0.671875
 40
0.671875
 40
0.6796875
 40
0.6796875
 40
0.6875
 40
0.6875
 40
0.6953125
 40
0.6953125
 40
0.703125
 40
0.703125
 40
0.7109375
 40
0.7109375
 40
0.71875
 40
0.71875
 40
0.7265625
 40
0.7265625
 40
0.734375
 40
0.734375
 40
0.7421875
 40
0.7421875
 40
0.75
 40
0.75
 40
0.7578125
 40
0.7578125
 40
0.765625
 40
0.765625
 40
0.7734375
 40
0.7734375
 40
0.78125
 40
0.78125
 40
0.7890625
 40
0.7890625
 40
0.796875
 40
0.796875
 40
0.8046875
 40
0.8046875
 40
0.8123732123717512
 40
0.8123732123717512
 40
0.8123732123717512
 40
0.8123732123717512
 10
-1.5
 20
-0.0000000000000002
 30
0.0
 10
-1.526041461936352
 20
0.1498559137469484
 30
0.0
 10
-1.529765646496423
 20
0.2978910046422887
 30
0.0
 10
-1.496784626969318
 20
0.5917926661448641
 30
0.0
 10
-1.459841145270496
 20
0.73737325463248
 30
0.0
 10
-1.28210114934758
 20
1.162498387675314
 30
0.0
 10
-1.093473784308929
 20
1.408058256366346
 30
0.0
 10
-0.5799135195798791
 20
1.788668581928291
 30
0.0
 10
-0.2784770457381729
 20
1.912976227560891
 30
0.0
 10
0.389960521748366
 20
1.992354530963407
 30
0.0
 10
0.7330792910216336
 20
1.950317591705132
 30
0.0
 10
1.391562366314333
 20
1.678671043297578
 30
0.0
 10
1.688766725927895
 20
1.462977275601082
 30
0.0
 10
2.161161938822473
 20
0.8743470894291917
 30
0.0
 10
2.327877285187278
 20
0.5217920966966298
 30
0.0
 10
2.468625028461263
 20
-0.2650137475771738
 30
0.0
 10
2.445267016771759
 20
-0.6779164221457097
 30
0.0
 10
2.179670220274454
 20
-1.480391398187787
 30
0.0
 10
1.949901125165503
 20
-1.852943609496648
 30
0.0
 10
1.30088117465387
 20
-2.465287360171247
 30
0.0
 10
0.9005233424334365
 20
-2.696378742363077
 30
0.0
 10
-0.0072686638242606
 20
-2.940532834802816
 30
0.0
 10
-0.4941795903853463
 20
-2.955087921537471
 30
0.0
 10
-1.456527603665078
 20
-2.729790328946688
 30
0.0
 10
-1.91483139463104
 20
-2.50102983060185
 30
0.0
 10
-2.693145406673473
 20
-1.815581629069768
 30
0.0
 10
-3.003501826001144
 20
-1.376734043769483
 30
0.0
 10
-3.383246733312005
 20
-0.3590728879775351
 30
0.0
 10
-3.452692801035305
 20
0.1995508623252304
 30
0.0
 10
-3.300856632897402
 20
1.324917224796673
 30
0.0
 10
-3.089230316693825
 20
1.874009273223744
 30
0.0
 10
-2.395689003860986
 20
2.835030401564691
 30
0.0
 10
-1.930631421970866
 20
3.236073056428537
 30
0.0
 10
-0.8212857044037539
 20
3.77859887427972
 30
0.0
 10
-0.1969674252378122
 20
3.91853344631829
 30
0.0
 10
1.087020167529137
 20
3.872501482414171
 30
0.0
 10
1.728407129549445
 20
3.694654935713
 30
0.0
 10
2.882535616712773
 20
3.023974097925568
 30
0.0
 10
3.383053007108692
 20
2.546955044287637
 30
0.0
 10
4.11154026565105
 20
1.369024377933042
 30
0.0
 10
4.33625397111797
 20
0.6878266731224103
 30
0.0
 10
4.427218580443106
 20
-0.7445223544762828
 30
0.0
 10
4.299947903486563
 20
-1.476773346965176
 30
0.0
 10
3.684732692237016
 20
-2.828948608978411
 30
0.0
 10
3.211450665060615
 20
-3.435294450491833
 30
0.0
 10
1.991902303660367
 20
-4.369005612157658
 30
0.0
 10
1.264988451070284
 20
-4.691351078655118
 30
0.0
 10
-0.3003587810568304
 20
-4.948879780724295
 30
0.0
 10
-1.119355853649544
 20
-4.88880205608653
 30
0.0
 10
-2.669353767558581
 20
-4.362566793906544
 30
0.0
 10
-3.385459809790169
 20
-3.909789028417905
 30
0.0
 10
-4.539570515059017
 20
-2.678736225124447
 30
0.0
 10
-4.970770316923668
 20
-1.919311312785718
 30
0.0
 10
-5.422291427728413
 20
-0.240950745047941
 30
0.0
 10
-5.445528588775247
 20
0.658135701739464
 30
0.0
 10
-5.042026662083331
 20
2.400693878585593
 30
0.0
 10
-4.627250144812759
 20
3.228030639560943
 30
0.0
 10
-3.417329590124161
 20
4.613391205355708
 30
0.0
 10
-2.64037395938051
 20
5.162833304063007
 30
0.0
 10
-0.8731997687713846
 20
5.833120580999809
 30
0.0
 10
0.096906554994554
 20
5.954991785029941
 30
0.0
 10
2.021816569350813
 20
5.707572694349612
 30
0.0
 10
2.959350611468425
 20
5.34869704283616
 30
0.0
 10
4.582250167830689
 20
4.194469060012976
 30
0.0
 10
5.257291633196002
 20
3.416475406024344
 30
0.0
 10
6.167968274717465
 20
1.588496342474305
 30
0.0
 10
6.402692010017716
 20
0.5587181301029406
 30
0.0
 10
6.343673587482446
 20
-1.533503850078303
 30
0.0
 10
6.058676241642023
 20
-2.577672370575494
 30
0.0
 10
4.996021024998806
 20
-4.439638442018389
 30
0.0
 10
4.234721802199878
 20
-5.245428298028274
 30
0.0
 10
2.377321863272669
 20
-6.414503625267074
 30
0.0
 10
1.301342908074969
 20
-6.77491267648989
 30
0.0
 10
-0.9384809523792685
 20
-6.934968286562741
 30
0.0
 10
-2.083193589784023
 20
-6.741580221111089
 30
0.0
 10
-4.180844171027224
 20
-5.807082403818046
 30
0.0
 10
-5.12017197032942
 20
-5.081163259690118
 30
0.0
 10
-6.561620825529162
 20
-3.22862923195094
 30
0.0
 10
-7.058893791096267
 20
-2.12186237267616
 30
0.0
 10
-7.466458979868152
 20
0.2414018219125222
 30
0.0
 10
-7.380929200667994
 20
1.478937414167899
 30
0.0
 10
-6.805040520135544
 20
3.221361705974209
 30
0.0
 10
-6.542367190859906
 20
3.78007659423359
 30
0.0
 10
-5.882089124811031
 20
4.823909797271207
 30
0.0
 10
-5.487055375761932
 20
5.307370886772859
 30
0.0
 10
-4.583879647204498
 20
6.168436418608608
 30
0.0
 10
-4.078134238937206
 20
6.545340601504211
 30
0.0
 10
-2.981845784812649
 20
7.167630267931494
 30
0.0
 10
-2.393798010363191
 20
7.412919723790599
 30
0.0
 10
-1.166954457642493
 20
7.753811839022402
 30
0.0
 10
-0.5306026572405245
 20
7.849928612552977
 30
0.0
 10
0.7550262409758169
 20
7.883061230190234
 30
0.0
 10
1.402057586041806
 20
7.821170568965975
 30
0.0
 10
2.669685696939757
 20
7.538376553320305
 30
0.0
 10
3.288369975821351
 20
7.319080487413284
 30
0.0
 10
4.460780602779305
 20
6.731247183902094
 30
0.0
 10
5.013042764948987
 20
6.364734554575513
 30
0.0
 10
6.0172906850844
 20
5.501514361200051
 30
0.0
 10
6.468348674955747
 20
5.007127156887903
 30
0.0
 10
7.240292167182703
 20
3.915494587662403
 30
0.0
 10
7.560842221048739
 20
3.320725971963599
 30
0.0
 10
8.049223888600746
 20
2.062447660307983
 30
0.0
 10
8.21733269824454
 20
1.401422316933566
 30
0.0
 10
8.387150350342312
 20
0.0495744827350032
 30
0.0
 10
8.389732555464967
 20
-0.6389053263307531
 30
0.0
 10
8.224680227698938
 20
-2.004176382993799
 30
0.0
 10
8.058462928239713
 20
-2.678907415919351
 30
0.0
 10
7.562275188204654
 20
-3.975136123477356
 30
0.0
 10
7.234180872963116
 20
-4.594979911121484
 30
0.0
 10
6.430777855902401
 20
-5.74236197705781
 30
0.0
 10
5.957691607700974
 20
-6.26875217927746
 30
0.0
 10
4.890093989080356
 20
-7.195054115899396
 30
0.0
 10
4.298018007177313
 20
-7.594392712174201
 30
0.0
 10
3.026076051165861
 20
-8.239488525543601
 30
0.0
 10
2.348712183858985
 20
-8.485282156296227
 30
0.0
 10
0.9457665457250588
 20
-8.805032881786198
 30
0.0
 10
0.2226033376893494
 20
-8.879633957166526
 30
0.0
 10
-1.228737110860214
 20
-8.848861003915186
 30
0.0
 10
-1.954724618820959
 20
-8.744700050928016
 30
0.0
 10
-3.367445293814275
 20
-8.359054511400178
 30
0.0
 10
-4.052349144185682
 20
-8.079279438282201
 30
0.0
 10
-5.340246475404837
 20
-7.355873747086044
 30
0.0
 10
-5.941881037002273
 20
-6.914346592269434
 30
0.0
 10
-7.024820675785207
 20
-5.891088447439113
 30
0.0
 10
-7.505319000393288
 20
-5.311728697863618
 30
0.0
 10
-8.314214884432197
 20
-4.045375620084239
 30
0.0
 10
-8.6424064990276
 20
-3.360879021031439
 30
0.0
 10
-9.123611808351749
 20
-1.92391057876735
 30
0.0
 10
-9.277032950413977
 20
-1.17391108691427
 30
0.0
 10
-9.395864796726931
 20
0.3496101744454178
 30
0.0
 10
-9.36227210340227
 20
1.120832420482904
 30
0.0
 10
-9.107524210892896
 20
2.627846992792289
 30
0.0
 10
-8.89089878746093
 20
3.362086631824418
 30
0.0
 10
-8.587213704470827
 20
4.063220495339676
 30
0.0
  0
LINE
  5
76
330
1F
100
AcDbEntity
  8
0
  6
Continuous
 62
     7
370
    25
100
AcDbLine
 10
-1.5
 20
0.0
 30
0.0
 11
-0.5
 21
0.0
 31
0.0
  0
SPLINE
  5
77
330
1F
100
AcDbEntity
  8
0
  6
Continuous
 62
     7
370
    25
100
AcDbSpline
210
0.0
220
0.0
230
1.0
 70
     8
 71
     3
 72
   162
 73
   158
 74
     0
 42
0.000000001
 43
0.00000001
 40
0.0
 40
0.0
 40
0.0
 40
0.0
 40
0.0078125
 40
0.0078125
 40
0.015625
 40
0.015625
 40
0.03125
 40
0.03125
 40
0.046875
 40
0.046875
 40
0.0625
 40
0.0625
 40
0.078125
 40
0.078125
 40
0.09375
 40
0.09375
 40
0.109375
 40
0.109375
 40
0.125
 40
0.125
 40
0.140625
 40
0.140625
 40
0.15625
 40
0.15625
 40
0.171875
 40
0.171875
 40
0.1875
 40
0.1875
 40
0.203125
 40
0.203125
 40
0.21875
 40
0.21875
 40
0.234375
 40
0.234375
 40
0.25
 40
0.25
 40
0.265625
 40
0.265625
 40
0.28125
 40
0.28125
 40
0.296875
 40
0.296875
 40
0.3125
 40
0.3125
 40
0.328125
 40
0.328125
 40
0.34375
 40
0.34375
 40
0.359375
 40
0.359375
 40
0.375
 40
0.375
 40
0.390625
 40
0.390625
 40
0.40625
 40
0.40625
 40
0.421875
 40
0.421875
 40
0.4375
 40
0.4375
 40
0.453125
 40
0.453125
 40
0.46875
 40
0.46875
 40
0.484375
 40
0.484375
 40
0.5
 40
0.5
 40
0.515625
 40
0.515625
 40
0.53125
 40
0.53125
 40
0.546875
 40
0.546875
 40
0.5625
 40
0.5625
 40
0.578125
 40
0.578125
 40
0.59375
 40
0.59375
 40
0.609375
 40
0.609375
 40
0.6171875
 40
0.6171875
 40
0.625
 40
0.625
 40
0.6328125
 40
0.6328125
 40
0.640625
 40
0.640625
 40
0.6484375
 40
0.6484375
 40
0.65625
 40
0.65625
 40
0.6640625
 40
0.6640625
 40
0.671875
 40
0.671875
 40
0.6796875
 40
0.6796875
 40
0.6875
 40
0.6875
 40
0.6953125
 40
0.6953125
 40
0.703125
 40
0.703125
 40
0.7109375
 40
0.7109375
 40
0.71875
 40
0.71875
 40
0.7265625
 40
0.7265625
 40
0.734375
 40
0.734375
 40
0.7421875
 40
0.7421875
 40
0.75
 40
0.75
 40
0.7578125
 40
0.7578125
 40
0.765625
 40
0.765625
 40
0.7734375
 40
0.7734375
 40
0.78125
 40
0.78125
 40
0.7890625
 40
0.7890625
 40
0.796875
 40
0.796875
 40
0.8046875
 40
0.8046875
 40
0.8125
 40
0.8125
 40
0.8203125
 40
0.8203125
 40
0.828125
 40
0.828125
 40
0.8359375
 40
0.8359375
 40
0.84375
 40
0.84375
 40
0.8515625
 40
0.8515625
 40
0.859375
 40
0.859375
 40
0.8671875
 40
0.8671875
 40
0.875
 40
0.875
 40
0.8828125
 40
0.8828125
 40
0.890625
 40
0.890625
 40
0.8984375
 40
0.8984375
 40
0.9
 40
0.9
 40
0.9
 40
0.9
 10
-0.5
 20
-0.0000000000000002
 30
0.0
 10
-0.5260417270119915
 20
0.040906215443751
 30
0.0
 10
-0.5469030355540443
 20
0.0884318479511538
 30
0.0
 10
-0.5744337055185172
 20
0.192842917587312
 30
0.0
 10
-0.5811033544067751
 20
0.2497287071131883
 30
0.0
 10
-0.574075780372274
 20
0.4286049113998059
 30
0.0
 10
-0.5330046629455378
 20
0.558403754124161
 30
0.0
 10
-0.3697969657113161
 20
0.7927343658674753
 30
0.0
 10
-0.2475968429228742
 20
0.8967163856299932
 30
0.0
 10
0.0576886335343502
 20
1.031454022297388
 30
0.0
 10
0.2405222939322081
 20
1.061689522438804
 30
0.0
 10
0.6205154288892439
 20
1.017039425711591
 30
0.0
 10
0.8171624258177825
 20
0.9418321111396483
 30
0.0
 10
1.163676860924231
 20
0.6838006795296928
 30
0.0
 10
1.31290941540023
 20
0.5009720161500282
 30
0.0
 10
1.506848265759057
 20
0.0599126596463413
 30
0.0
 10
1.550982718578951
 20
-0.1979748427776473
 30
0.0
 10
1.499264601567465
 20
-0.727307565970951
 30
0.0
 10
1.40308349696677
 20
-0.9981336934120374
 30
0.0
 10
1.071790237186147
 20
-1.476740040740879
 30
0.0
 10
0.836714648038546
 20
-1.683784696797227
 30
0.0
 10
0.269995683994092
 20
-1.96455033318182
 30
0.0
 10
-0.0612219335305426
 20
-2.037625510456722
 30
0.0
 10
-0.7435256447859869
 20
-2.008113771206604
 30
0.0
 10
-1.093883827780011
 20
-1.905167435333261
 30
0.0
 10
-1.721236370696167
 20
-1.525066451463885
 30
0.0
 10
-1.997381466167872
 20
-1.247968911510493
 30
0.0
 10
-2.391046313260738
 20
-0.5697773922236871
 30
0.0
 10
-2.507825201074963
 20
-0.1691792759189002
 30
0.0
 10
-2.530297477703034
 20
0.6653910488372975
 30
0.0
 10
-2.435575949070678
 20
1.098528017336665
 30
0.0
 10
-2.033573217055505
 20
1.887661985143695
 30
0.0
 10
-1.726346937773722
 20
2.242686068539305
 30
0.0
 10
-0.9547220029241413
 20
2.773241122441963
 30
0.0
 10
-0.4908735263611686
 20
2.947916836808903
 30
0.0
 10
0.4908735263611664
 20
3.052083163191098
 30
0.0
 10
1.007834807623811
 20
2.981078804939066
 30
0.0
 10
1.967857093590299
 20
2.586049176259927
 30
0.0
 10
2.409814988020278
 20
2.262052234230251
 30
0.0
 10
3.098671193484083
 20
1.418600559524614
 30
0.0
 10
3.34458278923914
 20
0.8997314599579017
 30
0.0
 10
3.559511252049226
 20
-0.2197375489215755
 30
0.0
 10
3.527929144813585
 20
-0.8193071656096179
 30
0.0
 10
3.170197465893244
 20
-1.955147719037284
 30
0.0
 10
2.844024007764234
 20
-2.490182458201602
 30
0.0
 10
1.953575203723334
 20
-3.355709095354098
 30
0.0
 10
1.389899322098698
 20
-3.68506844669681
 30
0.0
 10
0.1464369637783093
 20
-4.038615636478631
 30
0.0
 10
-0.5322389843352126
 20
-4.062077670061528
 30
0.0
 10
-1.8444668106857
 20
-3.772871328745932
 30
0.0
 10
-2.476650330636719
 20
-3.460100522611917
 30
0.0
 10
-3.533757309448928
 20
-2.550307117473745
 30
0.0
 10
-3.95739109108401
 20
-1.953873791450162
 30
0.0
 10
-4.475645617556078
 20
-0.6042599268547986
 30
0.0
 10
-4.569392526980432
 20
0.1477461677577113
 30
0.0
 10
-4.380273156699047
 20
1.632453020639449
 30
0.0
 10
-4.097199372389521
 20
2.363658108681897
 30
0.0
 10
-3.198086781221317
 20
3.623428510612501
 30
0.0
 10
-2.582601040697285
 20
4.150539118440128
 30
0.0
 10
-1.14856242486235
 20
4.857286323544918
 30
0.0
 10
-0.3312282384029667
 20
5.035881960649207
 30
0.0
 10
1.317525712969161
 20
4.978164351489773
 30
0.0
 10
2.147331303416889
 20
4.74151232207575
 30
0.0
 10
3.616709864161476
 20
3.88498490556316
 30
0.0
 10
4.254658876993388
 20
3.265598816161129
 30
0.0
 10
5.170874635729652
 20
1.772453808666727
 30
0.0
 10
5.447916759170034
 20
0.8999350724525028
 30
0.0
 10
5.552083240829965
 20
-0.8999350724524958
 30
0.0
 10
5.378712180454164
 20
-1.825566540072629
 30
0.0
 10
4.598022122486618
 20
-3.507109045271447
 30
0.0
 10
3.991100024725798
 20
-4.261226545151029
 30
0.0
 10
2.467403934127084
 20
-5.404607697866058
 30
0.0
 10
1.551866107248567
 20
-5.792449501449052
 30
0.0
 10
-0.3817864945644123
 20
-6.087568173200299
 30
0.0
 10
-1.398092134977632
 20
-5.994168999128263
 30
0.0
 10
-3.289779911494718
 20
-5.323355274135002
 30
0.0
 10
-4.16320265270868
 20
-4.746216034689453
 30
0.0
 10
-5.547741167660689
 20
-3.223349597616363
 30
0.0
 10
-6.057227649584428
 20
-2.278826659747083
 30
0.0
 10
-6.570382835607164
 20
-0.2329612362105698
 30
0.0
 10
-6.573172167169155
 20
0.8665029638004941
 30
0.0
 10
-6.17815192451681
 20
2.437845404069653
 30
0.0
 10
-5.980939991795442
 20
2.948457307158844
 30
0.0
 10
-5.464376147895694
 20
3.911601185669449
 30
0.0
 10
-5.145044280084209
 20
4.364068794832396
 30
0.0
 10
-4.400897265934184
 20
5.181872751185998
 30
0.0
 10
-3.976118053455018
 20
5.54715102223816
 30
0.0
 10
-3.044597546933697
 20
6.166205308078039
 30
0.0
 10
-2.537905882364742
 20
6.41993332171352
 30
0.0
 10
-1.471651222212541
 20
6.797805065587611
 30
0.0
 10
-0.9121487698285808
 20
6.921914068030297
 30
0.0
 10
0.2267346940674516
 20
7.030009960835709
 30
0.0
 10
0.8060477685326114
 20
7.013977836777944
 30
0.0
 10
1.949603029945205
 20
6.839614248917686
 30
0.0
 10
2.513773939427553
 20
6.681280997977682
 30
0.0
 10
3.592247238623633
 20
6.228816094441507
 30
0.0
 10
4.106479355591537
 20
5.934700356639746
 30
0.0
 10
5.052573684521078
 20
5.225638063784782
 30
0.0
 10
5.484371000490777
 20
4.810724510350735
 30
0.0
 10
6.23743891205488
 20
3.882762214585719
 30
0.0
 10
6.558654115698613
 20
3.369761872399538
 30
0.0
 10
7.068568988842868
 20
2.274818754985529
 30
0.0
 10
7.257226391359111
 20
1.692937100765743
 30
0.0
 10
7.487685960303404
 20
0.494264034084525
 30
0.0
 10
7.529461864202608
 20
-0.1224570564215606
 30
0.0
 10
7.460508081297362
 20
-1.353926119792428
 30
0.0
 10
7.349770081143827
 20
-1.968598729559178
 30
0.0
 10
6.979353660860276
 20
-3.158443726753667
 30
0.0
 10
6.719685747735664
 20
-3.733540263603849
 30
0.0
 10
6.064159541415965
 20
-4.808352069072545
 30
0.0
 10
5.668330298649036
 20
-5.307995672029168
 30
0.0
 10
4.761819718818741
 20
-6.199901493640021
 30
0.0
 10
4.251184546011577
 20
-6.592100735061556
 30
0.0
 10
3.143851762946277
 20
-7.243039099403257
 30
0.0
 10
2.547214915518353
 20
-7.501727985751695
 30
0.0
 10
1.302502309823987
 20
-7.86720468204936
 30
0.0
 10
0.6544984477253424
 20
-7.973958337524928
 30
0.0
 10
-0.6544984477252996
 20
-8.026041662475073
 30
0.0
 10
-1.315412669686062
 20
-7.971355670129293
 30
0.0
 10
-2.610235861876017
 20
-7.700711764295065
 30
0.0
 10
-3.244063829125837
 20
-7.484757995050118
 30
0.0
 10
-4.445595440348239
 20
-6.901582629632432
 30
0.0
 10
-5.013220835792183
 20
-6.534385098853323
 30
0.0
 10
-6.046515701844653
 20
-5.668153746836159
 30
0.0
 10
-6.512114544915355
 20
-5.169162800211894
 30
0.0
 10
-7.31106775961444
 20
-4.067192323739025
 30
0.0
 10
-7.644363609467576
 20
-3.464272185624341
 30
0.0
 10
-8.155922734384985
 20
-2.189160666613878
 30
0.0
 10
-8.334143412553445
 20
-1.517041843032642
 30
0.0
 10
-8.52179789545689
 20
-0.1431234712993024
 30
0.0
 10
-8.531207934064915
 20
0.5585945765314368
 30
0.0
 10
-8.37752803314556
 20
1.949579471189908
 30
0.0
 10
-8.214434955600199
 20
2.638760722783058
 30
0.0
 10
-7.722486980219518
 20
3.962528485514703
 30
0.0
 10
-7.393650131199506
 20
4.597030491739603
 30
0.0
 10
-6.58718096363549
 20
5.771860527081798
 30
0.0
 10
-6.109587145126653
 20
6.312110349904176
 30
0.0
 10
-5.031944907997379
 20
7.263885737278889
 30
0.0
 10
-4.431953434037814
 20
7.675344304752524
 30
0.0
 10
-3.14378837767999
 20
8.342215982778496
 30
0.0
 10
-2.455687009216227
 20
8.597577610668843
 30
0.0
 10
-1.031552496822105
 20
8.933959276538896
 30
0.0
 10
-0.2956026680589687
 20
9.014946770672948
 30
0.0
 10
1.180354170775204
 20
8.994583799026568
 30
0.0
 10
1.920271684958161
 20
8.893222046263459
 30
0.0
 10
3.35928088260737
 20
8.511130309866092
 30
0.0
 10
4.058282271913325
 20
8.230411346851685
 30
0.0
 10
5.3722899418811
 20
7.503547842840805
 30
0.0
 10
5.987210650787541
 20
7.057436328071172
 30
0.0
 10
7.094264801163566
 20
6.024039123879984
 30
0.0
 10
7.586322714778248
 20
5.436806808201561
 30
0.0
 10
8.415676665539321
 20
4.154422513153249
 30
0.0
 10
8.752912010548528
 20
3.459341320950303
 30
0.0
 10
9.249528055413654
 20
2.001639169899272
 30
0.0
 10
9.40886685789962
 20
1.239102361525904
 30
0.0
 10
9.485767414355195
 20
0.310630996133774
 30
0.0
 10
9.494773164231978
 20
0.1554418985445949
 30
0.0
 10
9.499962967877938
 20
-0.0000027391700972
 30
0.0
  0
CIRCLE
  5
78
330
1F
100
AcDbEntity
  8
0
  6
Continuous
 62
     7
370
    25
100
AcDbCircle
 10
0.0
 20
0.0
 30
0.0
 40
11.0
  0
ENDSEC
  0
SECTION
  2
OBJECTS
  0
DICTIONARY
  5
C
330
0
100
AcDbDictionary
281
     1
  3
ACAD_GROUP
350
D
  3
ACAD_LAYOUT
350
1A
  3
ACAD_MLINESTYLE
350
17
  3
ACAD_PLOTSETTINGS
350
19
  3
ACAD_PLOTSTYLENAME
350
E
  3
ACAD_SCALELIST
350
47
  0
DICTIONARY
  5
D
102
{ACAD_REACTORS
330
C
102
}
330
C
100
AcDbDictionary
281
     1
  0
DICTIONARY
  5
1A
102
{ACAD_REACTORS
330
C
102
}
330
C
100
AcDbDictionary
281
     1
  3
Layout1
350
1E
  3
Layout2
350
26
  3
Model
350
22
  0
DICTIONARY
  5
17
102
{ACAD_REACTORS
330
C
102
}
330
C
100
AcDbDictionary
281
     1
  3
Standard
350
18
  0
DICTIONARY
  5
19
102
{ACAD_REACTORS
330
C
102
}
330
C
100
AcDbDictionary
281
     1
  0
ACDBDICTIONARYWDFLT
  5
E
102
{ACAD_REACTORS
330
C
102
}
330
C
100
AcDbDictionary
281
     1
  3
Normal
350
F
100
AcDbDictionaryWithDefault
340
F
  0
DICTIONARY
  5
47
102
{ACAD_REACTORS
330
C
102
}
330
C
100
AcDbDictionary
281
     1
  3
A0
350
48
  3
A1
350
49
  3
A2
350
4A
  3
A3
350
4B
  3
A4
350
4C
  3
A5
350
4D
  3
A6
350
4E
  3
A7
350
4F
  3
A8
350
50
  3
A9
350
51
  3
B0
350
52
  3
B1
350
53
  3
B2
350
54
  3
B3
350
55
  3
B4
350
56
  3
B5
350
57
  3
B6
350
58
  3
B7
350
59
  3
B8
350
5A
  3
B9
350
5B
  3
C0
350
5C
  3
C1
350
5D
  3
C2
350
5E
  3
C3
350
5F
  3
C4
350
60
  3
C5
350
61
  3
C6
350
62
  3
C7
350
63
  3
C8
350
64
  3
C9
350
65
  3
D0
350
66
  3
D1
350
67
  3
D2
350
68
  0
LAYOUT
  5
1E
102
{ACAD_REACTORS
330
1A
102
}
330
1A
100
AcDbPlotSettings
  1

  2
none_device
  4

  6

 40
0.0
 41
0.0
 42
0.0
 43
0.0
 44
0.0
 45
0.0
 46
0.0
 47
0.0
 48
0.0
 49
0.0
140
0.0
141
0.0
142
1.0
143
1.0
 70
   688
 72
     1
 73
     0
 74
     5
  7

 75
    16
147
1.0
148
0.0
149
0.0
100
AcDbLayout
  1
Layout1
 70
     1
 71
     1
 10
0.0
 20
0.0
 11
420.0
 21
297.0
 12
0.0
 22
0.0
 32
0.0
 14
1.0000000000E+20
 24
1.0000000000E+20
 34
1.0000000000E+20
 15
-1.0000000000E+20
 25
-1.0000000000E+20
 35
-1.0000000000E+20
146
0.0
 13
0.0
 23
0.0
 33
0.0
 16
1.0
 26
0.0
 36
0.0
 17
0.0
 27
1.0
 37
0.0
 76
     0
330
1B
  0
LAYOUT
  5
26
102
{ACAD_REACTORS
330
1A
102
}
330
1A
100
AcDbPlotSettings
  1

  2
none_device
  4

  6

 40
0.0
 41
0.0
 42
0.0
 43
0.0
 44
0.0
 45
0.0
 46
0.0
 47
0.0
 48
0.0
 49
0.0
140
0.0
141
0.0
142
1.0
143
1.0
 70
   688
 72
     1
 73
     0
 74
     5
  7

 75
    16
147
1.0
148
0.0
149
0.0
100
AcDbLayout
  1
Layout2
 70
     1
 71
     2
 10
0.0
 20
0.0
 11
0.0
 21
0.0
 12
0.0
 22
0.0
 32
0.0
 14
0.0
 24
0.0
 34
0.0
 15
0.0
 25
0.0
 35
0.0
146
0.0
 13
0.0
 23
0.0
 33
0.0
 16
1.0
 26
0.0
 36
0.0
 17
0.0
 27
1.0
 37
0.0
 76
     0
330
23
  0
LAYOUT
  5
22
102
{ACAD_REACTORS
330
1A
102
}
330
1A
100
AcDbPlotSettings
  1

  2
none_device
  4
ANSI_A_(11.00_x_8.50_Inches)
  6

 40
6.35
 41
19.05
 42
6.35000508
 43
19.05000254
 44
279.4
 45
215.9
 46
133.34999746
 47
88.89999873
 48
0.0
 49
0.0
140
0.0
141
0.0
142
0.3825
143
1.0
 70
  1696
 72
     0
 73
     0
 74
     0
  7

 75
     0
147
0.0179189148
148
-1300.4909072572
149
0.0
100
AcDbLayout
  1
Model
 70
     1
 71
     0
 10
0.0
 20
0.0
 11
420.0
 21
297.0
 12
0.0
 22
0.0
 32
0.0
 14
-11.0
 24
-11.0
 34
0.0
 15
11.0
 25
11.0
 35
0.0
146
0.0
 13
0.0
 23
0.0
 33
0.0
 16
1.0
 26
0.0
 36
0.0
 17
0.0
 27
1.0
 37
0.0
 76
     0
330
1F
331
29
  0
MLINESTYLE
  5
18
102
{ACAD_REACTORS
330
17
102
}
330
17
100
AcDbMlineStyle
  2
Standard
 70
     0
  3

 62
   256
 51
90.0
 52
90.0
 71
     2
 49
0.5
 62
   256
  6
BYLAYER
 49
-0.5
 62
   256
  6
BYLAYER
  0
ACDBPLACEHOLDER
  5
F
102
{ACAD_REACTORS
330
E
102
}
330
E
  0
SCALE
  5
48
102
{ACAD_REACTORS
330
47
102
}
330
47
100
AcDbScale
 70
     0
300
1:1
140
1.0
141
1.0
290
     1
  0
SCALE
  5
49
102
{ACAD_REACTORS
330
47
102
}
330
47
100
AcDbScale
 70
     0
300
1:2
140
1.0
141
2.0
290
     0
  0
SCALE
  5
4A
102
{ACAD_REACTORS
330
47
102
}
330
47
100
AcDbScale
 70
     0
300
1:4
140
1.0
141
4.0
290
     0
  0
SCALE
  5
4B
102
{ACAD_REACTORS
330
47
102
}
330
47
100
AcDbScale
 70
     0
300
1:5
140
1.0
141
5.0
290
     0
  0
SCALE
  5
4C
102
{ACAD_REACTORS
330
47
102
}
330
47
100
AcDbScale
 70
     0
300
1:8
140
1.0
141
8.0
290
     0
  0
SCALE
  5
4D
102
{ACAD_REACTORS
330
47
102
}
330
47
100
AcDbScale
 70
     0
300
1:10
140
1.0
141
10.0
290
     0
  0
SCALE
  5
4E
102
{ACAD_REACTORS
330
47
102
}
330
47
100
AcDbScale
 70
     0
300
1:16
140
1.0
141
16.0
290
     0
  0
SCALE
  5
4F
102
{ACAD_REACTORS
330
47
102
}
330
47
100
AcDbScale
 70
     0
300
1:20
140
1.0
141
20.0
290
     0
  0
SCALE
  5
50
102
{ACAD_REACTORS
330
47
102
}
330
47
100
AcDbScale
 70
     0
300
1:30
140
1.0
141
30.0
290
     0
  0
SCALE
  5
51
102
{ACAD_REACTORS
330
47
102
}
330
47
100
AcDbScale
 70
     0
300
1:40
140
1.0
141
40.0
290
     0
  0
SCALE
  5
52
102
{ACAD_REACTORS
330
47
102
}
330
47
100
AcDbScale
 70
     0
300
1:50
140
1.0
141
50.0
290
     0
  0
SCALE
  5
53
102
{ACAD_REACTORS
330
47
102
}
330
47
100
AcDbScale
 70
     0
300
1:100
140
1.0
141
100.0
290
     0
  0
SCALE
  5
54
102
{ACAD_REACTORS
330
47
102
}
330
47
100
AcDbScale
 70
     0
300
2:1
140
2.0
141
1.0
290
     0
  0
SCALE
  5
55
102
{ACAD_REACTORS
330
47
102
}
330
47
100
AcDbScale
 70
     0
300
4:1
140
4.0
141
1.0
290
     0
  0
SCALE
  5
56
102
{ACAD_REACTORS
330
47
102
}
330
47
100
AcDbScale
 70
     0
300
8:1
140
8.0
141
1.0
290
     0
  0
SCALE
  5
57
102
{ACAD_REACTORS
330
47
102
}
330
47
100
AcDbScale
 70
     0
300
10:1
140
10.0
141
1.0
290
     0
  0
SCALE
  5
58
102
{ACAD_REACTORS
330
47
102
}
330
47
100
AcDbScale
 70
     0
300
100:1
140
100.0
141
1.0
290
     0
  0
SCALE
  5
59
102
{ACAD_REACTORS
330
47
102
}
330
47
100
AcDbScale
 70
     0
300
1/128" = 1'-0"
140
0.0078125
141
12.0
290
     0
  0
SCALE
  5
5A
102
{ACAD_REACTORS
330
47
102
}
330
47
100
AcDbScale
 70
     0
300
1/64" = 1'-0"
140
0.015625
141
12.0
290
     0
  0
SCALE
  5
5B
102
{ACAD_REACTORS
330
47
102
}
330
47
100
AcDbScale
 70
     0
300
1/32" = 1'-0"
140
0.03125
141
12.0
290
     0
  0
SCALE
  5
5C
102
{ACAD_REACTORS
330
47
102
}
330
47
100
AcDbScale
 70
     0
300
1/16" = 1'-0"
140
0.0625
141
12.0
290
     0
  0
SCALE
  5
5D
102
{ACAD_REACTORS
330
47
102
}
330
47
100
AcDbScale
 70
     0
300
3/32" = 1'-0"
140
0.09375
141
12.0
290
     0
  0
SCALE
  5
5E
102
{ACAD_REACTORS
330
47
102
}
330
47
100
AcDbScale
 70
     0
300
1/8" = 1'-0"
140
0.125
141
12.0
290
     0
  0
SCALE
  5
5F
102
{ACAD_REACTORS
330
47
102
}
330
47
100
AcDbScale
 70
     0
300
3/16" = 1'-0"
140
0.1875
141
12.0
290
     0
  0
SCALE
  5
60
102
{ACAD_REACTORS
330
47
102
}
330
47
100
AcDbScale
 70
     0
300
1/4" = 1'-0"
140
0.25
141
12.0
290
     0
  0
SCALE
  5
61
102
{ACAD_REACTORS
330
47
102
}
330
47
100
AcDbScale
 70
     0
300
3/8" = 1'-0"
140
0.375
141
12.0
290
     0
  0
SCALE
  5
62
102
{ACAD_REACTORS
330
47
102
}
330
47
100
AcDbScale
 70
     0
300
1/2" = 1'-0"
140
0.5
141
12.0
290
     0
  0
SCALE
  5
63
102
{ACAD_REACTORS
330
47
102
}
330
47
100
AcDbScale
 70
     0
300
3/4" = 1'-0"
140
0.75
141
12.0
290
     0
  0
SCALE
  5
64
102
{ACAD_REACTORS
330
47
102
}
330
47
100
AcDbScale
 70
     0
300
1" = 1'-0"
140
1.0
141
12.0
290
     0
  0
SCALE
  5
65
102
{ACAD_REACTORS
330
47
102
}
330
47
100
AcDbScale
 70
     0
300
1-1/2" = 1'-0"
140
1.5
141
12.0
290
     0
  0
SCALE
  5
66
102
{ACAD_REACTORS
330
47
102
}
330
47
100
AcDbScale
 70
     0
300
3" = 1'-0"
140
3.0
141
12.0
290
     0
  0
SCALE
  5
67
102
{ACAD_REACTORS
330
47
102
}
330
47
100
AcDbScale
 70
     0
300
6" = 1'-0"
140
6.0
141
12.0
290
     0
  0
SCALE
  5
68
102
{ACAD_REACTORS
330
47
102
}
330
47
100
AcDbScale
 70
     0
300
1'-0" = 1'-0"
140
12.0
141
12.0
290
     0
  0
ENDSEC
  0
EOF
