0
SECTION
2
HEADER
9
$INSUNITS
70
4
9
$ACADVER
1
AC1014
9
$HANDSEED
5
FFFF
0
ENDSEC
0
SECTION
2
TABLES
0
TABLE
2
VPORT
5
8
100
AcDbSymbolTable
0
ENDTAB
0
TABLE
2
LTYPE
5
5
100
AcDbSymbolTable
0
LTYPE
5
14
100
AcDbSymbolTableRecord
100
AcDbLinetypeTableRecord
2
BYBLOCK
70
0
0
LTYPE
5
15
100
AcDbSymbolTableRecord
100
AcDbLinetypeTableRecord
2
BYLAYER
70
0
0
ENDTAB
0
TABLE
2
LAYER
5
2
100
AcDbSymbolTable
70
2
0
LAYER
5
50
100
AcDbSymbolTableRecord
100
AcDbLayerTableRecord
2
0
70
0
6
CONTINUOUS
0
ENDTAB
0
TABLE
2
STYLE
5
3
100
AcDbSymbolTable
70
1
0
STYLE
5
11
100
AcDbSymbolTableRecord
100
AcDbTextStyleTableRecord
2
STANDARD
70
0
0
ENDTAB
0
TABLE
2
VIEW
5
6
100
AcDbSymbolTable
70
0
0
ENDTAB
0
TABLE
2
UCS
5
7
100
AcDbSymbolTable
70
0
0
ENDTAB
0
TABLE
2
APPID
5
9
100
AcDbSymbolTable
70
2
0
APPID
5
12
100
AcDbSymbolTableRecord
100
AcDbRegAppTableRecord
2
ACAD
70
0
0
ENDTAB
0
TABLE
2
DIMSTYLE
5
A
100
AcDbSymbolTable
70
1
0
ENDTAB
0
TABLE
2
BLOCK_RECORD
5
1
100
AcDbSymbolTable
70
1
0
BLOCK_RECORD
5
1F
100
AcDbSymbolTableRecord
100
AcDbBlockTableRecord
2
*MODEL_SPACE
0
BLOCK_RECORD
5
1B
100
AcDbSymbolTableRecord
100
AcDbBlockTableRecord
2
*PAPER_SPACE
0
ENDTAB
0
ENDSEC
0
SECTION
2
BLOCKS
0
BLOCK
5
20
100
AcDbEntity
100
AcDbBlockBegin
2
*MODEL_SPACE
0
ENDBLK
5
21
100
AcDbEntity
100
AcDbBlockEnd
0
BLOCK
5
1C
100
AcDbEntity
100
AcDbBlockBegin
2
*PAPER_SPACE
0
ENDBLK
5
1D
100
AcDbEntity
100
AcDbBlockEnd
0
ENDSEC
0
SECTION
2
ENTITIES
0
CIRCLE
5
100
100
AcDbEntity
8
0
100
AcDbCircle
10
0
20
0
30
0
40
36
210
0
220
0
230
1
0
LINE
5
101
100
AcDbEntity
8
0
100
AcDbLine
10
-14.500000000000007
20
23.951291520020455
30
0
11
8.4999999999999964
21
23.951291520020455
31
0
0
LINE
5
102
100
AcDbEntity
8
0
100
AcDbLine
10
8.4999999999999964
20
23.951291520020455
30
0
11
8.5000000000000018
21
-0.048708479979549524
31
0
0
LINE
5
103
100
AcDbEntity
8
0
100
AcDbLine
10
8.5000000000000018
20
-0.048708479979549524
30
0
11
-14.500000000000007
21
-0.048708479979549524
31
0
0
LINE
5
104
100
AcDbEntity
8
0
100
AcDbLine
10
-14.500000000000007
20
-0.048708479979549524
30
0
11
-14.500000000000007
21
23.951291520020455
31
0
0
LINE
5
105
100
AcDbEntity
8
0
100
AcDbLine
10
-14.500000000000007
20
23.951291520020455
30
0
11
8.5000000000000018
21
-0.048708479979549524
31
0
0
LINE
5
106
100
AcDbEntity
8
0
100
AcDbLine
10
8.4999999999999964
20
23.951291520020455
30
0
11
-14.500000000000007
21
-0.048708479979549524
31
0
0
LINE
5
107
100
AcDbEntity
8
0
100
AcDbLine
10
0
20
0
30
0
11
0
21
52.000000774860382
31
0
0
CIRCLE
5
108
100
AcDbEntity
8
0
100
AcDbCircle
10
-14.500000000000007
20
23.951291520020455
30
0
40
1.5000000000000002
210
0
220
0
230
1
0
CIRCLE
5
109
100
AcDbEntity
8
0
100
AcDbCircle
10
8.4999999999999964
20
23.951291520020455
30
0
40
1.5000000000000002
210
0
220
0
230
1
0
CIRCLE
5
110
100
AcDbEntity
8
0
100
AcDbCircle
10
-14.500000000000007
20
-0.048708479979549524
30
0
40
1.5000000000000002
210
0
220
0
230
1
0
CIRCLE
5
111
100
AcDbEntity
8
0
100
AcDbCircle
10
8.5000000000000018
20
-0.048708479979549524
30
0
40
1.5000000000000002
210
0
220
0
230
1
0
LINE
5
112
100
AcDbEntity
8
0
100
AcDbLine
10
23.499999999999996
20
26.951291520020458
30
0
11
-23.500000000000007
21
26.951291520020458
31
0
0
LINE
5
113
100
AcDbEntity
8
0
100
AcDbLine
10
-23.500000000000007
20
26.951291520020458
30
0
11
-23.500000000000007
21
-20.109871125965931
31
0
0
LINE
5
114
100
AcDbEntity
8
0
100
AcDbLine
10
-23.500000000000007
20
-20.109871125965931
30
0
11
23.499999999999996
21
-20.109871125965931
31
0
0
LINE
5
115
100
AcDbEntity
8
0
100
AcDbLine
10
23.499999999999996
20
-20.109871125965931
30
0
11
23.499999999999996
21
26.951291520020458
31
0
0
LINE
5
116
100
AcDbEntity
8
0
100
AcDbLine
10
23.499999999999996
20
26.951291520020458
30
0
11
-23.500000000000007
21
-20.109871125965931
31
0
0
LINE
5
117
100
AcDbEntity
8
0
100
AcDbLine
10
-23.500000000000007
20
26.951291520020458
30
0
11
23.499999999999996
21
-20.109871125965931
31
0
0
LINE
5
118
100
AcDbEntity
8
0
100
AcDbLine
10
27.000000000000007
20
-26.048708479979563
30
0
11
-26.999999999999993
21
-26.048708479979538
31
0
0
LINE
5
119
100
AcDbEntity
8
0
100
AcDbLine
10
-26.999999999999993
20
-26.048708479979538
30
0
11
-26.999999999999957
21
-2.0487084799795494
31
0
0
LINE
5
120
100
AcDbEntity
8
0
100
AcDbLine
10
-26.999999999999957
20
-2.0487084799795494
30
0
11
27.000000000000014
21
-2.0487084799795579
31
0
0
LINE
5
121
100
AcDbEntity
8
0
100
AcDbLine
10
27.000000000000014
20
-2.0487084799795579
30
0
11
27.000000000000007
21
-26.048708479979563
31
0
0
LINE
5
122
100
AcDbEntity
8
0
100
AcDbLine
10
27.000000000000007
20
-26.048708479979563
30
0
11
-26.999999999999957
21
-2.0487084799795494
31
0
0
LINE
5
123
100
AcDbEntity
8
0
100
AcDbLine
10
-26.999999999999993
20
-26.048708479979538
30
0
11
27.000000000000014
21
-2.0487084799795579
31
0
0
LWPOLYLINE
5
124
100
AcDbEntity
8
0
100
AcDbPolyline
90
8
70
1
43
0.0
10
-19.5
20
-4.5464988285880619
10
19.5
20
-4.5464988285880654
42
-0.4142135623730957
10
22.5
20
-7.5464988285880663
10
22.5
20
-17.546498828588064
42
-0.41421356237309548
10
19.5
20
-20.546498828588064
10
-19.5
20
-20.546498828588064
42
-0.41421356237309548
10
-22.5
20
-17.546498828588064
10
-22.5
20
-7.5464988285880636
42
-0.41421356237309503
0
LINE
5
125
100
AcDbEntity
8
0
100
AcDbLine
10
22.5
20
-4.5464988285880654
30
0
11
-22.5
21
-20.546498828588064
31
0
0
LINE
5
126
100
AcDbEntity
8
0
100
AcDbLine
10
-22.5
20
-4.5464988285880636
30
0
11
22.5
21
-20.546498828588064
31
0
0
CIRCLE
5
127
100
AcDbEntity
8
0
100
AcDbCircle
10
-28.500000000000007
20
2.9512915200204501
30
0
40
1.5000000000000002
210
0
220
0
230
1
0
CIRCLE
5
128
100
AcDbEntity
8
0
100
AcDbCircle
10
28.500000000000007
20
2.9512915200204501
30
0
40
1.5000000000000002
210
0
220
0
230
1
0
CIRCLE
5
129
100
AcDbEntity
8
0
100
AcDbCircle
10
-10.500000000000028
20
-31.048708479979563
30
0
40
1.5000000000000002
210
0
220
0
230
1
0
CIRCLE
5
130
100
AcDbEntity
8
0
100
AcDbCircle
10
10.500000000000032
20
-31.048708479979563
30
0
40
1.5000000000000002
210
0
220
0
230
1
0
CIRCLE
5
131
100
AcDbEntity
8
0
100
AcDbCircle
10
-17.00000025331974
20
-107.04870847997955
30
0
40
1.5000000000000002
210
0
220
0
230
1
0
CIRCLE
5
132
100
AcDbEntity
8
0
100
AcDbCircle
10
17.00000025331974
20
-107.04870847997955
30
0
40
1.5000000000000002
210
0
220
0
230
1
0
CIRCLE
5
133
100
AcDbEntity
8
0
100
AcDbCircle
10
28.500000000000007
20
-77.048708479979553
30
0
40
1.5000000000000002
210
0
220
0
230
1
0
CIRCLE
5
134
100
AcDbEntity
8
0
100
AcDbCircle
10
-28.500000000000007
20
-77.048708479979553
30
0
40
1.5000000000000002
210
0
220
0
230
1
0
LINE
5
135
100
AcDbEntity
8
0
100
AcDbLine
10
7.682514815468196e-16
20
-12.546498828588067
30
0
11
0
21
-140
31
0
0
LINE
5
136
100
AcDbEntity
8
0
100
AcDbLine
10
-31.485749807280705
20
-77.340766844520147
30
0
11
-29.485797390086432
21
-97.786534777204679
31
0
0
LINE
5
137
100
AcDbEntity
8
0
100
AcDbLine
10
-25.514250192715192
20
-76.756650115437978
30
0
11
-25.195882532118805
21
-80.011363202533957
31
0
0
LINE
5
138
100
AcDbEntity
8
0
100
AcDbLine
10
25.514250192715192
20
-76.756650115437964
30
0
11
25.195882607263904
21
-80.011362434329669
31
0
0
LINE
5
139
100
AcDbEntity
8
0
100
AcDbLine
10
31.485749807280648
20
-77.340766844520729
30
0
11
29.485797390086432
21
-97.786534777204693
31
0
0
LINE
5
140
100
AcDbEntity
8
0
100
AcDbLine
10
-14.260221183538723
20
-108.2708421293011
30
0
11
-13.017526325703743
21
-105.48496894471869
31
0
0
LINE
5
141
100
AcDbEntity
8
0
100
AcDbLine
10
14.260221184759704
20
-108.27084212875644
30
0
11
13.01874861771002
21
-105.48770907879296
31
0
0
LINE
5
142
100
AcDbEntity
8
0
100
AcDbLine
10
18.22213390225361
20
-109.78848754889256
30
0
11
18.755060432523987
21
-109.55076493379438
31
0
0
LINE
5
143
100
AcDbEntity
8
0
100
AcDbLine
10
-18.755060432411867
20
-109.55076493384438
30
0
11
-18.22220287604026
21
-109.78845678174548
31
0
0
ARC
5
144
100
AcDbEntity
8
0
100
AcDbCircle
10
17.00000025331974
20
-107.04870847997955
30
0
40
2.999999999998729
210
0
220
0
230
1
100
AcDbArc
50
204.04022359539414
51
294.0402235953859
0
ARC
5
145
100
AcDbEntity
8
0
100
AcDbCircle
10
-17.00000025331974
20
-107.04870847997955
30
0
40
3.0000000013356876
210
0
220
0
230
1
100
AcDbArc
50
245.95833398653139
51
335.95977640460558
0
ARC
5
146
100
AcDbEntity
8
0
100
AcDbCircle
10
0
20
-80
30
0
40
34.999999999999986
210
0
220
0
230
1
100
AcDbArc
50
215.21589790935255
51
237.59782340882921
0
ARC
5
147
100
AcDbEntity
8
0
100
AcDbCircle
10
0
20
-80
30
0
40
34.999999999999986
210
0
220
0
230
1
100
AcDbArc
50
302.4021765913696
51
324.78410209064725
0
ARC
5
148
100
AcDbEntity
8
0
100
AcDbCircle
10
-24.509547711278302
20
-97.299770836301974
30
0
40
5.0000000000001137
210
0
220
0
230
1
100
AcDbArc
50
185.58675250204962
51
215.21589790935226
0
ARC
5
149
100
AcDbEntity
8
0
100
AcDbCircle
10
-8.4512278781016867
20
-107.5218583593478
30
0
40
5.0000000000001883
210
0
220
-0
230
1
100
AcDbArc
50
88.1030391387809
51
155.95977640460507
0
ARC
5
150
100
AcDbEntity
8
0
100
AcDbCircle
10
8.4524501701078574
20
-107.524598493422
30
0
40
5.0000000000001741
210
0
220
-0
230
1
100
AcDbArc
50
24.040223595393694
51
90.000000000000043
0
ARC
5
151
100
AcDbEntity
8
0
100
AcDbCircle
10
24.509547711278476
20
-97.299770836302116
30
0
40
4.999999999999921
210
-0
220
0
230
1
100
AcDbArc
50
324.78410209064674
51
354.41324749795172
0
ARC
5
152
100
AcDbEntity
8
0
100
AcDbCircle
10
20.219632928456281
20
-79.524598493421649
30
0
40
5.0000000000001421
210
0
220
0
230
1
100
AcDbArc
50
270.00000000000006
51
354.41324749788924
0
ARC
5
153
100
AcDbEntity
8
0
100
AcDbCircle
10
-20.219632853310845
20
-79.524599261630314
30
0
40
5.0000000000000373
210
0
220
0
230
1
100
AcDbArc
50
185.58675250206048
51
269.96823914330736
0
ARC
5
154
100
AcDbEntity
8
0
100
AcDbCircle
10
-28.500000000000007
20
-77.048708479979553
30
0
40
3.0000000000000009
210
0
220
-0
230
1
100
AcDbArc
50
5.5867525020488458
51
185.5867525020378
0
ARC
5
155
100
AcDbEntity
8
0
100
AcDbCircle
10
28.500000000000007
20
-77.048708479979553
30
0
40
2.9999999999958122
210
0
220
0
230
1
100
AcDbArc
50
-5.5867525020489692
51
174.41324749795089
0
LINE
5
156
100
AcDbEntity
8
0
100
AcDbLine
10
24.801139750068305
20
-81.527045806966797
30
0
11
25.048062926361155
21
-81.522541833201558
31
0
0
LINE
5
157
100
AcDbEntity
8
0
100
AcDbLine
10
-20.222404510781598
20
-84.524598493421834
30
0
11
20.219632928456285
21
-84.524598493421792
31
0
0
LINE
5
158
100
AcDbEntity
8
0
100
AcDbLine
10
-8.2857170554719755
20
-102.52459849342185
30
0
11
8.4524501701078538
21
-102.52459849342186
31
0
0
CIRCLE
5
159
100
AcDbEntity
8
0
100
AcDbCircle
10
0
20
-31.000000461935997
30
0
40
2
210
0
220
0
230
1
0
ENDSEC
0
SECTION
2
OBJECTS
0
DICTIONARY
5
C
100
AcDbDictionary
3
ACAD_GROUP
350
D
3
ACAD_MLINESTYLE
350
17
0
DICTIONARY
5
D
100
AcDbDictionary
0
DICTIONARY
5
1A
330
C
100
AcDbDictionary
0
DICTIONARY
5
17
100
AcDbDictionary
0
ENDSEC
0
EOF
