  0
SECTION
  2
HEADER
  9
$ACADVER
  1
AC1014
  9
$HANDSEED
  5
FFFF
  9
$MEASUREMENT
 70
     1
  0
ENDSEC
  0
SECTION
  2
TABLES
  0
TABLE
  2
VPORT
  5
8
330
0
100
AcDbSymbolTable
 70
     4
  0
VPORT
  5
2E
330
8
100
AcDbSymbolTableRecord
100
AcDbViewportTableRecord
  2
*ACTIVE
 70
     0
 10
0.0
 20
0.0
 11
1.0
 21
1.0
 12
210.0
 22
148.5
 13
0.0
 23
0.0
 14
10.0
 24
10.0
 15
10.0
 25
10.0
 16
0.0
 26
0.0
 36
1.0
 17
0.0
 27
0.0
 37
0.0
 40
341.0
 41
1.24
 42
50.0
 43
0.0
 44
0.0
 50
0.0
 51
0.0
 71
     0
 72
   100
 73
     1
 74
     3
 75
     0
 76
     0
 77
     0
 78
     0
  0
ENDTAB
  0
TABLE
  2
LTYPE
  5
5
330
0
100
AcDbSymbolTable
 70
     1
  0
LTYPE
  5
14
330
5
100
AcDbSymbolTableRecord
100
AcDbLinetypeTableRecord
  2
BYBLOCK
 70
     0
  3

 72
    65
 73
     0
 40
0.0
  0
LTYPE
  5
15
330
5
100
AcDbSymbolTableRecord
100
AcDbLinetypeTableRecord
  2
BYLAYER
 70
     0
  3

 72
    65
 73
     0
 40
0.0
  0
LTYPE
  5
16
330
5
100
AcDbSymbolTableRecord
100
AcDbLinetypeTableRecord
  2
CONTINUOUS
 70
     0
  3
Solid line
 72
    65
 73
     0
 40
0.0
  0
ENDTAB
  0
TABLE
  2
LAYER
  5
2
100
AcDbSymbolTable
 70
1
  0
LAYER
  5
50
100
AcDbSymbolTableRecord
100
AcDbLayerTableRecord
  2
0
 70
0
  6
CONTINUOUS
  0
ENDTAB
  0
TABLE
  2
STYLE
  5
3
330
0
100
AcDbSymbolTable
 70
     1
  0
STYLE
  5
11
330
3
100
AcDbSymbolTableRecord
100
AcDbTextStyleTableRecord
  2
STANDARD
 70
     0
 40
0.0
 41
1.0
 50
0.0
 71
     0
 42
2.5
  3
txt
  4

  0
ENDTAB
  0
TABLE
  2
VIEW
  5
6
330
0
100
AcDbSymbolTable
 70
     0
  0
ENDTAB
  0
TABLE
  2
UCS
  5
7
330
0
100
AcDbSymbolTable
 70
     0
  0
ENDTAB
  0
TABLE
  2
APPID
  5
9
330
0
100
AcDbSymbolTable
 70
     2
  0
APPID
  5
12
330
9
100
AcDbSymbolTableRecord
100
AcDbRegAppTableRecord
  2
ACAD
 70
     0
  0
ENDTAB
  0
TABLE
  2
DIMSTYLE
  5
A
330
0
100
AcDbSymbolTable
 70
     1
  0
DIMSTYLE
105
27
330
A
100
AcDbSymbolTableRecord
100
AcDbDimStyleTableRecord
  2
ISO-25
 70
     0
  3

  4

  5

  6

  7

 40
1.0
 41
2.5
 42
0.625
 43
3.75
 44
1.25
 45
0.0
 46
0.0
 47
0.0
 48
0.0
140
2.5
141
2.5
142
0.0
143
0.03937007874016
144
1.0
145
0.0
146
1.0
147
0.625
 71
     0
 72
     0
 73
     0
 74
     0
 75
     0
 76
     0
 77
     1
 78
     8
170
     0
171
     3
172
     1
173
     0
174
     0
175
     0
176
     0
177
     0
178
     0
270
     2
271
     2
272
     2
273
     2
274
     3
340
11
275
     0
280
     0
281
     0
282
     0
283
     0
284
     8
285
     0
286
     0
287
     3
288
     0
  0
ENDTAB
  0
TABLE
  2
BLOCK_RECORD
  5
1
330
0
100
AcDbSymbolTable
 70
     1
  0
BLOCK_RECORD
  5
1F
330
1
100
AcDbSymbolTableRecord
100
AcDbBlockTableRecord
  2
*MODEL_SPACE
  0
BLOCK_RECORD
  5
1B
330
1
100
AcDbSymbolTableRecord
100
AcDbBlockTableRecord
  2
*PAPER_SPACE
  0
ENDTAB
  0
ENDSEC
  0
SECTION
  2
BLOCKS
  0
BLOCK
  5
20
330
1F
100
AcDbEntity
  8
0
100
AcDbBlockBegin
  2
*MODEL_SPACE
 70
     0
 10
0.0
 20
0.0
 30
0.0
  3
*MODEL_SPACE
  1

  0
ENDBLK
  5
21
330
1F
100
AcDbEntity
  8
0
100
AcDbBlockEnd
  0
BLOCK
  5
1C
330
1B
100
AcDbEntity
 67
     1
  8
0
100
AcDbBlockBegin
  2
*PAPER_SPACE
  1

  0
ENDBLK
  5
1D
330
1B
100
AcDbEntity
 67
     1
  8
0
100
AcDbBlockEnd
  0
ENDSEC
  0
SECTION
  2
ENTITIES
  0
SPLINE
  5
100
100
AcDbEntity
  8
0
 62
1
100
AcDbSpline
 70
8
 71
3
 72
8
 73
4
 74
0
 40
0
 40
0
 40
0
 40
0
 40
1
 40
1
 40
1
 40
1
 10
90.620757
 20
272.645746
 30
0.0
 10
90.620757
 20
273.181644
 30
0.0
 10
90.334859
 20
273.676835
 30
0.0
 10
89.870757
 20
273.944784
 30
0.0
  0
SPLINE
  5
101
100
AcDbEntity
  8
0
 62
1
100
AcDbSpline
 70
8
 71
3
 72
8
 73
4
 74
0
 40
0
 40
0
 40
0
 40
0
 40
1
 40
1
 40
1
 40
1
 10
89.870757
 20
273.944784
 30
0.0
 10
89.406656
 20
274.212733
 30
0.0
 10
88.834859
 20
274.212733
 30
0.0
 10
88.370757
 20
273.944784
 30
0.0
  0
SPLINE
  5
102
100
AcDbEntity
  8
0
 62
1
100
AcDbSpline
 70
8
 71
3
 72
8
 73
4
 74
0
 40
0
 40
0
 40
0
 40
0
 40
1
 40
1
 40
1
 40
1
 10
88.370757
 20
273.944784
 30
0.0
 10
87.906656
 20
273.676835
 30
0.0
 10
87.620757
 20
273.181644
 30
0.0
 10
87.620757
 20
272.645746
 30
0.0
  0
SPLINE
  5
103
100
AcDbEntity
  8
0
 62
1
100
AcDbSpline
 70
8
 71
3
 72
8
 73
4
 74
0
 40
0
 40
0
 40
0
 40
0
 40
1
 40
1
 40
1
 40
1
 10
87.620757
 20
272.645746
 30
0.0
 10
87.620757
 20
272.109847
 30
0.0
 10
87.906656
 20
271.614657
 30
0.0
 10
88.370757
 20
271.346708
 30
0.0
  0
SPLINE
  5
104
100
AcDbEntity
  8
0
 62
1
100
AcDbSpline
 70
8
 71
3
 72
8
 73
4
 74
0
 40
0
 40
0
 40
0
 40
0
 40
1
 40
1
 40
1
 40
1
 10
88.370757
 20
271.346708
 30
0.0
 10
88.834859
 20
271.078758
 30
0.0
 10
89.406656
 20
271.078758
 30
0.0
 10
89.870757
 20
271.346708
 30
0.0
  0
SPLINE
  5
105
100
AcDbEntity
  8
0
 62
1
100
AcDbSpline
 70
8
 71
3
 72
8
 73
4
 74
0
 40
0
 40
0
 40
0
 40
0
 40
1
 40
1
 40
1
 40
1
 10
89.870757
 20
271.346708
 30
0.0
 10
90.334859
 20
271.614657
 30
0.0
 10
90.620757
 20
272.109847
 30
0.0
 10
90.620757
 20
272.645746
 30
0.0
  0
SPLINE
  5
106
100
AcDbEntity
  8
0
 62
1
100
AcDbSpline
 70
8
 71
3
 72
8
 73
4
 74
0
 40
0
 40
0
 40
0
 40
0
 40
1
 40
1
 40
1
 40
1
 10
130.620758
 20
272.645746
 30
0.0
 10
130.620758
 20
273.181644
 30
0.0
 10
130.334859
 20
273.676835
 30
0.0
 10
129.870758
 20
273.944784
 30
0.0
  0
SPLINE
  5
107
100
AcDbEntity
  8
0
 62
1
100
AcDbSpline
 70
8
 71
3
 72
8
 73
4
 74
0
 40
0
 40
0
 40
0
 40
0
 40
1
 40
1
 40
1
 40
1
 10
129.870758
 20
273.944784
 30
0.0
 10
129.406656
 20
274.212733
 30
0.0
 10
128.834859
 20
274.212733
 30
0.0
 10
128.370758
 20
273.944784
 30
0.0
  0
SPLINE
  5
108
100
AcDbEntity
  8
0
 62
1
100
AcDbSpline
 70
8
 71
3
 72
8
 73
4
 74
0
 40
0
 40
0
 40
0
 40
0
 40
1
 40
1
 40
1
 40
1
 10
128.370758
 20
273.944784
 30
0.0
 10
127.906656
 20
273.676835
 30
0.0
 10
127.620757
 20
273.181644
 30
0.0
 10
127.620757
 20
272.645746
 30
0.0
  0
SPLINE
  5
109
100
AcDbEntity
  8
0
 62
1
100
AcDbSpline
 70
8
 71
3
 72
8
 73
4
 74
0
 40
0
 40
0
 40
0
 40
0
 40
1
 40
1
 40
1
 40
1
 10
127.620757
 20
272.645746
 30
0.0
 10
127.620757
 20
272.109847
 30
0.0
 10
127.906656
 20
271.614657
 30
0.0
 10
128.370758
 20
271.346708
 30
0.0
  0
SPLINE
  5
10a
100
AcDbEntity
  8
0
 62
1
100
AcDbSpline
 70
8
 71
3
 72
8
 73
4
 74
0
 40
0
 40
0
 40
0
 40
0
 40
1
 40
1
 40
1
 40
1
 10
128.370758
 20
271.346708
 30
0.0
 10
128.834859
 20
271.078758
 30
0.0
 10
129.406656
 20
271.078758
 30
0.0
 10
129.870758
 20
271.346708
 30
0.0
  0
SPLINE
  5
10b
100
AcDbEntity
  8
0
 62
1
100
AcDbSpline
 70
8
 71
3
 72
8
 73
4
 74
0
 40
0
 40
0
 40
0
 40
0
 40
1
 40
1
 40
1
 40
1
 10
129.870758
 20
271.346708
 30
0.0
 10
130.334859
 20
271.614657
 30
0.0
 10
130.620758
 20
272.109847
 30
0.0
 10
130.620758
 20
272.645746
 30
0.0
  0
LWPOLYLINE
  5
10c
100
AcDbEntity
  8
0
 62
1
100
AcDbPolyline
 90
1
 70
1
 10
90.620757
 20
272.645746
 30
0.0
  0
SPLINE
  5
10d
100
AcDbEntity
  8
0
 62
1
100
AcDbSpline
 70
8
 71
3
 72
8
 73
4
 74
0
 40
0
 40
0
 40
0
 40
0
 40
1
 40
1
 40
1
 40
1
 10
129.120757
 20
150.120750
 30
0.0
 10
131.772924
 20
150.120749
 30
0.0
 10
134.316464
 20
151.174319
 30
0.0
 10
136.191828
 20
153.049684
 30
0.0
  0
SPLINE
  5
10e
100
AcDbEntity
  8
0
 62
1
100
AcDbSpline
 70
8
 71
3
 72
8
 73
4
 74
0
 40
0
 40
0
 40
0
 40
0
 40
1
 40
1
 40
1
 40
1
 10
136.191828
 20
153.049684
 30
0.0
 10
138.067192
 20
154.925049
 30
0.0
 10
139.120760
 20
157.468590
 30
0.0
 10
139.120758
 20
160.120756
 30
0.0
  0
LWPOLYLINE
  5
10f
100
AcDbEntity
  8
0
 62
1
100
AcDbPolyline
 90
1
 70
1
 10
130.620758
 20
272.645746
 30
0.0
  0
SPLINE
  5
110
100
AcDbEntity
  8
0
 62
1
100
AcDbSpline
 70
8
 71
3
 72
8
 73
4
 74
0
 40
0
 40
0
 40
0
 40
0
 40
1
 40
1
 40
1
 40
1
 10
79.120757
 20
160.120756
 30
0.0
 10
79.120755
 20
157.468590
 30
0.0
 10
80.174323
 20
154.925049
 30
0.0
 10
82.049687
 20
153.049684
 30
0.0
  0
SPLINE
  5
111
100
AcDbEntity
  8
0
 62
1
100
AcDbSpline
 70
8
 71
3
 72
8
 73
4
 74
0
 40
0
 40
0
 40
0
 40
0
 40
1
 40
1
 40
1
 40
1
 10
82.049687
 20
153.049684
 30
0.0
 10
83.925051
 20
151.174319
 30
0.0
 10
86.468591
 20
150.120749
 30
0.0
 10
89.120757
 20
150.120750
 30
0.0
  0
LWPOLYLINE
  5
112
100
AcDbEntity
  8
0
 62
1
100
AcDbPolyline
 90
2
 70
0
 10
89.120757
 20
150.120750
 30
0.0
 10
129.120757
 20
150.120750
 30
0.0
  0
SPLINE
  5
113
100
AcDbEntity
  8
0
 62
1
100
AcDbSpline
 70
8
 71
3
 72
8
 73
4
 74
0
 40
0
 40
0
 40
0
 40
0
 40
1
 40
1
 40
1
 40
1
 10
89.120757
 20
250.120745
 30
0.0
 10
83.597910
 20
250.120746
 30
0.0
 10
79.120757
 20
245.643594
 30
0.0
 10
79.120757
 20
240.120747
 30
0.0
  0
LWPOLYLINE
  5
114
100
AcDbEntity
  8
0
 62
1
100
AcDbPolyline
 90
2
 70
0
 10
79.120757
 20
240.120747
 30
0.0
 10
79.120757
 20
160.120756
 30
0.0
  0
SPLINE
  5
115
100
AcDbEntity
  8
0
 62
1
100
AcDbSpline
 70
8
 71
3
 72
8
 73
4
 74
0
 40
0
 40
0
 40
0
 40
0
 40
1
 40
1
 40
1
 40
1
 10
139.120758
 20
240.120747
 30
0.0
 10
139.120757
 20
245.643594
 30
0.0
 10
134.643605
 20
250.120746
 30
0.0
 10
129.120757
 20
250.120745
 30
0.0
  0
LWPOLYLINE
  5
116
100
AcDbEntity
  8
0
 62
1
100
AcDbPolyline
 90
2
 70
0
 10
89.120757
 20
250.120745
 30
0.0
 10
129.120757
 20
250.120745
 30
0.0
  0
LWPOLYLINE
  5
117
100
AcDbEntity
  8
0
 62
1
100
AcDbPolyline
 90
2
 70
0
 10
139.120758
 20
240.120747
 30
0.0
 10
139.120758
 20
160.120756
 30
0.0
  0
LWPOLYLINE
  5
118
100
AcDbEntity
  8
0
 62
1
100
AcDbPolyline
 90
2
 70
0
 10
213.120758
 20
215.120747
 30
0.0
 10
213.120758
 20
205.120745
 30
0.0
  0
LWPOLYLINE
  5
119
100
AcDbEntity
  8
0
 62
1
100
AcDbPolyline
 90
2
 70
0
 10
213.120758
 20
215.120747
 30
0.0
 10
208.120758
 20
215.120747
 30
0.0
  0
LWPOLYLINE
  5
11a
100
AcDbEntity
  8
0
 62
1
100
AcDbPolyline
 90
2
 70
0
 10
208.120758
 20
218.620747
 30
0.0
 10
208.120758
 20
215.120747
 30
0.0
  0
LWPOLYLINE
  5
11b
100
AcDbEntity
  8
0
 62
1
100
AcDbPolyline
 90
14
 70
0
 10
208.120758
 20
218.620747
 30
0.0
 10
205.120759
 20
218.620747
 30
0.0
 10
205.120759
 20
217.520748
 30
0.0
 10
202.820757
 20
217.520748
 30
0.0
 10
202.820757
 20
218.620747
 30
0.0
 10
198.120757
 20
218.620747
 30
0.0
 10
198.120757
 20
221.620747
 30
0.0
 10
202.820757
 20
221.620747
 30
0.0
 10
202.820757
 20
222.720747
 30
0.0
 10
205.120759
 20
222.720747
 30
0.0
 10
205.120759
 20
221.620747
 30
0.0
 10
208.120758
 20
221.620747
 30
0.0
 10
208.120758
 20
225.120745
 30
0.0
 10
213.120758
 20
225.120745
 30
0.0
  0
LWPOLYLINE
  5
11c
100
AcDbEntity
  8
0
 62
1
100
AcDbPolyline
 90
2
 70
0
 10
213.120758
 20
235.120746
 30
0.0
 10
213.120758
 20
225.120745
 30
0.0
  0
LWPOLYLINE
  5
11d
100
AcDbEntity
  8
0
 62
1
100
AcDbPolyline
 90
2
 70
0
 10
218.120756
 20
235.120746
 30
0.0
 10
213.120758
 20
235.120746
 30
0.0
  0
LWPOLYLINE
  5
11e
100
AcDbEntity
  8
0
 62
1
100
AcDbPolyline
 90
2
 70
0
 10
218.120756
 20
285.120747
 30
0.0
 10
218.120756
 20
235.120746
 30
0.0
  0
LWPOLYLINE
  5
11f
100
AcDbEntity
  8
0
 62
1
100
AcDbPolyline
 90
2
 70
0
 10
213.120758
 20
285.120747
 30
0.0
 10
218.120756
 20
285.120747
 30
0.0
  0
LWPOLYLINE
  5
120
100
AcDbEntity
  8
0
 62
1
100
AcDbPolyline
 90
2
 70
0
 10
213.120758
 20
295.120745
 30
0.0
 10
213.120758
 20
285.120747
 30
0.0
  0
LWPOLYLINE
  5
121
100
AcDbEntity
  8
0
 62
1
100
AcDbPolyline
 90
2
 70
0
 10
213.120758
 20
295.120745
 30
0.0
 10
208.120758
 20
295.120745
 30
0.0
  0
LWPOLYLINE
  5
122
100
AcDbEntity
  8
0
 62
1
100
AcDbPolyline
 90
2
 70
0
 10
208.120758
 20
298.620746
 30
0.0
 10
208.120758
 20
295.120745
 30
0.0
  0
LWPOLYLINE
  5
123
100
AcDbEntity
  8
0
 62
1
100
AcDbPolyline
 90
14
 70
0
 10
208.120758
 20
298.620746
 30
0.0
 10
205.120759
 20
298.620746
 30
0.0
 10
205.120759
 20
297.520746
 30
0.0
 10
202.820757
 20
297.520746
 30
0.0
 10
202.820757
 20
298.620746
 30
0.0
 10
198.120757
 20
298.620746
 30
0.0
 10
198.120757
 20
301.620745
 30
0.0
 10
202.820757
 20
301.620745
 30
0.0
 10
202.820757
 20
302.720745
 30
0.0
 10
205.120759
 20
302.720745
 30
0.0
 10
205.120759
 20
301.620745
 30
0.0
 10
208.120758
 20
301.620745
 30
0.0
 10
208.120758
 20
305.120746
 30
0.0
 10
213.120758
 20
305.120746
 30
0.0
  0
LWPOLYLINE
  5
124
100
AcDbEntity
  8
0
 62
1
100
AcDbPolyline
 90
2
 70
0
 10
213.120758
 20
315.120748
 30
0.0
 10
213.120758
 20
305.120746
 30
0.0
  0
LWPOLYLINE
  5
125
100
AcDbEntity
  8
0
 62
1
100
AcDbPolyline
 90
2
 70
0
 10
218.120756
 20
315.120748
 30
0.0
 10
213.120758
 20
315.120748
 30
0.0
  0
LWPOLYLINE
  5
126
100
AcDbEntity
  8
0
 62
1
100
AcDbPolyline
 90
2
 70
0
 10
218.120756
 20
360.120748
 30
0.0
 10
218.120756
 20
315.120748
 30
0.0
  0
LWPOLYLINE
  5
127
100
AcDbEntity
  8
0
 62
1
100
AcDbPolyline
 90
5
 70
0
 10
218.120756
 20
360.120748
 30
0.0
 10
199.120757
 20
360.120748
 30
0.0
 10
199.120757
 20
355.120747
 30
0.0
 10
189.120759
 20
355.120747
 30
0.0
 10
189.120759
 20
350.120746
 30
0.0
  0
LWPOLYLINE
  5
128
100
AcDbEntity
  8
0
 62
1
100
AcDbPolyline
 90
2
 70
0
 10
185.620758
 20
350.120746
 30
0.0
 10
189.120759
 20
350.120746
 30
0.0
  0
LWPOLYLINE
  5
129
100
AcDbEntity
  8
0
 62
1
100
AcDbPolyline
 90
20
 70
0
 10
185.620758
 20
350.120746
 30
0.0
 10
185.620758
 20
347.120747
 30
0.0
 10
186.720758
 20
347.120747
 30
0.0
 10
186.720758
 20
344.820745
 30
0.0
 10
185.620758
 20
344.820745
 30
0.0
 10
185.620758
 20
340.120745
 30
0.0
 10
182.620759
 20
340.120745
 30
0.0
 10
182.620759
 20
344.820745
 30
0.0
 10
181.520756
 20
344.820745
 30
0.0
 10
181.520756
 20
347.120747
 30
0.0
 10
182.620759
 20
347.120747
 30
0.0
 10
182.620759
 20
350.120746
 30
0.0
 10
179.120758
 20
350.120746
 30
0.0
 10
179.120758
 20
355.120747
 30
0.0
 10
169.120756
 20
355.120747
 30
0.0
 10
169.120756
 20
360.120748
 30
0.0
 10
149.120757
 20
360.120748
 30
0.0
 10
149.120757
 20
355.120747
 30
0.0
 10
139.120758
 20
355.120747
 30
0.0
 10
139.120758
 20
350.120746
 30
0.0
  0
LWPOLYLINE
  5
12a
100
AcDbEntity
  8
0
 62
1
100
AcDbPolyline
 90
2
 70
0
 10
135.620757
 20
350.120746
 30
0.0
 10
139.120758
 20
350.120746
 30
0.0
  0
LWPOLYLINE
  5
12b
100
AcDbEntity
  8
0
 62
1
100
AcDbPolyline
 90
15
 70
0
 10
135.620757
 20
350.120746
 30
0.0
 10
135.620757
 20
347.120747
 30
0.0
 10
136.720757
 20
347.120747
 30
0.0
 10
136.720757
 20
344.820745
 30
0.0
 10
135.620757
 20
344.820745
 30
0.0
 10
135.620757
 20
340.120745
 30
0.0
 10
132.620758
 20
340.120745
 30
0.0
 10
132.620758
 20
344.820745
 30
0.0
 10
131.520757
 20
344.820745
 30
0.0
 10
131.520757
 20
347.120747
 30
0.0
 10
132.620758
 20
347.120747
 30
0.0
 10
132.620758
 20
350.120746
 30
0.0
 10
129.120757
 20
350.120746
 30
0.0
 10
129.120757
 20
355.120747
 30
0.0
 10
119.120758
 20
355.120747
 30
0.0
  0
LWPOLYLINE
  5
12c
100
AcDbEntity
  8
0
 62
1
100
AcDbPolyline
 90
2
 70
0
 10
119.120758
 20
360.120748
 30
0.0
 10
119.120758
 20
355.120747
 30
0.0
  0
LWPOLYLINE
  5
12d
100
AcDbEntity
  8
0
 62
1
100
AcDbPolyline
 90
2
 70
0
 10
99.120757
 20
360.120748
 30
0.0
 10
119.120758
 20
360.120748
 30
0.0
  0
LWPOLYLINE
  5
12e
100
AcDbEntity
  8
0
 62
1
100
AcDbPolyline
 90
2
 70
0
 10
99.120757
 20
355.120747
 30
0.0
 10
99.120757
 20
360.120748
 30
0.0
  0
LWPOLYLINE
  5
12f
100
AcDbEntity
  8
0
 62
1
100
AcDbPolyline
 90
2
 70
0
 10
99.120757
 20
355.120747
 30
0.0
 10
89.120757
 20
355.120747
 30
0.0
  0
LWPOLYLINE
  5
130
100
AcDbEntity
  8
0
 62
1
100
AcDbPolyline
 90
2
 70
0
 10
89.120757
 20
350.120746
 30
0.0
 10
89.120757
 20
355.120747
 30
0.0
  0
LWPOLYLINE
  5
131
100
AcDbEntity
  8
0
 62
1
100
AcDbPolyline
 90
2
 70
0
 10
85.620757
 20
350.120746
 30
0.0
 10
89.120757
 20
350.120746
 30
0.0
  0
LWPOLYLINE
  5
132
100
AcDbEntity
  8
0
 62
1
100
AcDbPolyline
 90
2
 70
0
 10
85.620757
 20
347.120747
 30
0.0
 10
85.620757
 20
350.120746
 30
0.0
  0
LWPOLYLINE
  5
133
100
AcDbEntity
  8
0
 62
1
100
AcDbPolyline
 90
2
 70
0
 10
86.720758
 20
347.120747
 30
0.0
 10
85.620757
 20
347.120747
 30
0.0
  0
LWPOLYLINE
  5
134
100
AcDbEntity
  8
0
 62
1
100
AcDbPolyline
 90
2
 70
0
 10
86.720758
 20
344.820745
 30
0.0
 10
86.720758
 20
347.120747
 30
0.0
  0
LWPOLYLINE
  5
135
100
AcDbEntity
  8
0
 62
1
100
AcDbPolyline
 90
2
 70
0
 10
85.620757
 20
344.820745
 30
0.0
 10
86.720758
 20
344.820745
 30
0.0
  0
LWPOLYLINE
  5
136
100
AcDbEntity
  8
0
 62
1
100
AcDbPolyline
 90
2
 70
0
 10
85.620757
 20
340.120745
 30
0.0
 10
85.620757
 20
344.820745
 30
0.0
  0
LWPOLYLINE
  5
137
100
AcDbEntity
  8
0
 62
1
100
AcDbPolyline
 90
2
 70
0
 10
82.620758
 20
340.120745
 30
0.0
 10
85.620757
 20
340.120745
 30
0.0
  0
LWPOLYLINE
  5
138
100
AcDbEntity
  8
0
 62
1
100
AcDbPolyline
 90
2
 70
0
 10
82.620758
 20
344.820745
 30
0.0
 10
82.620758
 20
340.120745
 30
0.0
  0
LWPOLYLINE
  5
139
100
AcDbEntity
  8
0
 62
1
100
AcDbPolyline
 90
2
 70
0
 10
81.520758
 20
344.820745
 30
0.0
 10
82.620758
 20
344.820745
 30
0.0
  0
LWPOLYLINE
  5
13a
100
AcDbEntity
  8
0
 62
1
100
AcDbPolyline
 90
2
 70
0
 10
81.520758
 20
347.120747
 30
0.0
 10
81.520758
 20
344.820745
 30
0.0
  0
LWPOLYLINE
  5
13b
100
AcDbEntity
  8
0
 62
1
100
AcDbPolyline
 90
2
 70
0
 10
82.620758
 20
347.120747
 30
0.0
 10
81.520758
 20
347.120747
 30
0.0
  0
LWPOLYLINE
  5
13c
100
AcDbEntity
  8
0
 62
1
100
AcDbPolyline
 90
2
 70
0
 10
82.620758
 20
350.120746
 30
0.0
 10
82.620758
 20
347.120747
 30
0.0
  0
LWPOLYLINE
  5
13d
100
AcDbEntity
  8
0
 62
1
100
AcDbPolyline
 90
2
 70
0
 10
82.620758
 20
350.120746
 30
0.0
 10
79.120757
 20
350.120746
 30
0.0
  0
LWPOLYLINE
  5
13e
100
AcDbEntity
  8
0
 62
1
100
AcDbPolyline
 90
2
 70
0
 10
79.120757
 20
355.120747
 30
0.0
 10
79.120757
 20
350.120746
 30
0.0
  0
LWPOLYLINE
  5
13f
100
AcDbEntity
  8
0
 62
1
100
AcDbPolyline
 90
6
 70
0
 10
79.120757
 20
355.120747
 30
0.0
 10
69.120758
 20
355.120747
 30
0.0
 10
69.120758
 20
360.120748
 30
0.0
 10
49.120758
 20
360.120748
 30
0.0
 10
49.120758
 20
355.120747
 30
0.0
 10
39.120757
 20
355.120747
 30
0.0
  0
LWPOLYLINE
  5
140
100
AcDbEntity
  8
0
 62
1
100
AcDbPolyline
 90
2
 70
0
 10
39.120757
 20
350.120746
 30
0.0
 10
39.120757
 20
355.120747
 30
0.0
  0
LWPOLYLINE
  5
141
100
AcDbEntity
  8
0
 62
1
100
AcDbPolyline
 90
2
 70
0
 10
35.620756
 20
350.120746
 30
0.0
 10
39.120757
 20
350.120746
 30
0.0
  0
LWPOLYLINE
  5
142
100
AcDbEntity
  8
0
 62
1
100
AcDbPolyline
 90
2
 70
0
 10
35.620756
 20
347.120747
 30
0.0
 10
35.620756
 20
350.120746
 30
0.0
  0
LWPOLYLINE
  5
143
100
AcDbEntity
  8
0
 62
1
100
AcDbPolyline
 90
2
 70
0
 10
36.720759
 20
347.120747
 30
0.0
 10
35.620756
 20
347.120747
 30
0.0
  0
LWPOLYLINE
  5
144
100
AcDbEntity
  8
0
 62
1
100
AcDbPolyline
 90
2
 70
0
 10
36.720759
 20
344.820745
 30
0.0
 10
36.720759
 20
347.120747
 30
0.0
  0
LWPOLYLINE
  5
145
100
AcDbEntity
  8
0
 62
1
100
AcDbPolyline
 90
2
 70
0
 10
35.620756
 20
344.820745
 30
0.0
 10
36.720759
 20
344.820745
 30
0.0
  0
LWPOLYLINE
  5
146
100
AcDbEntity
  8
0
 62
1
100
AcDbPolyline
 90
2
 70
0
 10
35.620756
 20
340.120745
 30
0.0
 10
35.620756
 20
344.820745
 30
0.0
  0
LWPOLYLINE
  5
147
100
AcDbEntity
  8
0
 62
1
100
AcDbPolyline
 90
2
 70
0
 10
32.620757
 20
340.120745
 30
0.0
 10
35.620756
 20
340.120745
 30
0.0
  0
LWPOLYLINE
  5
148
100
AcDbEntity
  8
0
 62
1
100
AcDbPolyline
 90
2
 70
0
 10
32.620757
 20
344.820745
 30
0.0
 10
32.620757
 20
340.120745
 30
0.0
  0
LWPOLYLINE
  5
149
100
AcDbEntity
  8
0
 62
1
100
AcDbPolyline
 90
2
 70
0
 10
31.520757
 20
344.820745
 30
0.0
 10
32.620757
 20
344.820745
 30
0.0
  0
LWPOLYLINE
  5
14a
100
AcDbEntity
  8
0
 62
1
100
AcDbPolyline
 90
2
 70
0
 10
31.520757
 20
347.120747
 30
0.0
 10
31.520757
 20
344.820745
 30
0.0
  0
LWPOLYLINE
  5
14b
100
AcDbEntity
  8
0
 62
1
100
AcDbPolyline
 90
2
 70
0
 10
32.620757
 20
347.120747
 30
0.0
 10
31.520757
 20
347.120747
 30
0.0
  0
LWPOLYLINE
  5
14c
100
AcDbEntity
  8
0
 62
1
100
AcDbPolyline
 90
2
 70
0
 10
32.620757
 20
350.120746
 30
0.0
 10
32.620757
 20
347.120747
 30
0.0
  0
LWPOLYLINE
  5
14d
100
AcDbEntity
  8
0
 62
1
100
AcDbPolyline
 90
2
 70
0
 10
32.620757
 20
350.120746
 30
0.0
 10
29.120756
 20
350.120746
 30
0.0
  0
LWPOLYLINE
  5
14e
100
AcDbEntity
  8
0
 62
1
100
AcDbPolyline
 90
2
 70
0
 10
29.120756
 20
355.120747
 30
0.0
 10
29.120756
 20
350.120746
 30
0.0
  0
LWPOLYLINE
  5
14f
100
AcDbEntity
  8
0
 62
1
100
AcDbPolyline
 90
7
 70
0
 10
29.120756
 20
355.120747
 30
0.0
 10
19.120758
 20
355.120747
 30
0.0
 10
19.120758
 20
360.120748
 30
0.0
 10
0.120758
 20
360.120748
 30
0.0
 10
0.120758
 20
315.120748
 30
0.0
 10
5.120756
 20
315.120748
 30
0.0
 10
5.120756
 20
305.120746
 30
0.0
  0
LWPOLYLINE
  5
150
100
AcDbEntity
  8
0
 62
1
100
AcDbPolyline
 90
2
 70
0
 10
10.120757
 20
305.120746
 30
0.0
 10
5.120756
 20
305.120746
 30
0.0
  0
LWPOLYLINE
  5
151
100
AcDbEntity
  8
0
 62
1
100
AcDbPolyline
 90
2
 70
0
 10
10.120757
 20
301.620745
 30
0.0
 10
10.120757
 20
305.120746
 30
0.0
  0
LWPOLYLINE
  5
152
100
AcDbEntity
  8
0
 62
1
100
AcDbPolyline
 90
2
 70
0
 10
13.120756
 20
301.620745
 30
0.0
 10
10.120757
 20
301.620745
 30
0.0
  0
LWPOLYLINE
  5
153
100
AcDbEntity
  8
0
 62
1
100
AcDbPolyline
 90
2
 70
0
 10
13.120756
 20
302.720745
 30
0.0
 10
13.120756
 20
301.620745
 30
0.0
  0
LWPOLYLINE
  5
154
100
AcDbEntity
  8
0
 62
1
100
AcDbPolyline
 90
2
 70
0
 10
15.420758
 20
302.720745
 30
0.0
 10
13.120756
 20
302.720745
 30
0.0
  0
LWPOLYLINE
  5
155
100
AcDbEntity
  8
0
 62
1
100
AcDbPolyline
 90
2
 70
0
 10
15.420758
 20
301.620745
 30
0.0
 10
15.420758
 20
302.720745
 30
0.0
  0
LWPOLYLINE
  5
156
100
AcDbEntity
  8
0
 62
1
100
AcDbPolyline
 90
2
 70
0
 10
20.120758
 20
301.620745
 30
0.0
 10
15.420758
 20
301.620745
 30
0.0
  0
LWPOLYLINE
  5
157
100
AcDbEntity
  8
0
 62
1
100
AcDbPolyline
 90
2
 70
0
 10
20.120758
 20
298.620746
 30
0.0
 10
20.120758
 20
301.620745
 30
0.0
  0
LWPOLYLINE
  5
158
100
AcDbEntity
  8
0
 62
1
100
AcDbPolyline
 90
2
 70
0
 10
15.420758
 20
298.620746
 30
0.0
 10
20.120758
 20
298.620746
 30
0.0
  0
LWPOLYLINE
  5
159
100
AcDbEntity
  8
0
 62
1
100
AcDbPolyline
 90
2
 70
0
 10
15.420758
 20
297.520746
 30
0.0
 10
15.420758
 20
298.620746
 30
0.0
  0
LWPOLYLINE
  5
15a
100
AcDbEntity
  8
0
 62
1
100
AcDbPolyline
 90
2
 70
0
 10
13.120756
 20
297.520746
 30
0.0
 10
15.420758
 20
297.520746
 30
0.0
  0
LWPOLYLINE
  5
15b
100
AcDbEntity
  8
0
 62
1
100
AcDbPolyline
 90
2
 70
0
 10
13.120756
 20
298.620746
 30
0.0
 10
13.120756
 20
297.520746
 30
0.0
  0
LWPOLYLINE
  5
15c
100
AcDbEntity
  8
0
 62
1
100
AcDbPolyline
 90
2
 70
0
 10
10.120757
 20
298.620746
 30
0.0
 10
13.120756
 20
298.620746
 30
0.0
  0
LWPOLYLINE
  5
15d
100
AcDbEntity
  8
0
 62
1
100
AcDbPolyline
 90
2
 70
0
 10
10.120757
 20
298.620746
 30
0.0
 10
10.120757
 20
295.120745
 30
0.0
  0
LWPOLYLINE
  5
15e
100
AcDbEntity
  8
0
 62
1
100
AcDbPolyline
 90
2
 70
0
 10
5.120756
 20
295.120745
 30
0.0
 10
10.120757
 20
295.120745
 30
0.0
  0
LWPOLYLINE
  5
15f
100
AcDbEntity
  8
0
 62
1
100
AcDbPolyline
 90
6
 70
0
 10
5.120756
 20
295.120745
 30
0.0
 10
5.120756
 20
285.120747
 30
0.0
 10
0.120758
 20
285.120747
 30
0.0
 10
0.120758
 20
235.120746
 30
0.0
 10
5.120756
 20
235.120746
 30
0.0
 10
5.120756
 20
225.120745
 30
0.0
  0
LWPOLYLINE
  5
160
100
AcDbEntity
  8
0
 62
1
100
AcDbPolyline
 90
2
 70
0
 10
10.120757
 20
225.120745
 30
0.0
 10
5.120756
 20
225.120745
 30
0.0
  0
LWPOLYLINE
  5
161
100
AcDbEntity
  8
0
 62
1
100
AcDbPolyline
 90
2
 70
0
 10
10.120757
 20
221.620747
 30
0.0
 10
10.120757
 20
225.120745
 30
0.0
  0
LWPOLYLINE
  5
162
100
AcDbEntity
  8
0
 62
1
100
AcDbPolyline
 90
2
 70
0
 10
13.120756
 20
221.620747
 30
0.0
 10
10.120757
 20
221.620747
 30
0.0
  0
LWPOLYLINE
  5
163
100
AcDbEntity
  8
0
 62
1
100
AcDbPolyline
 90
2
 70
0
 10
13.120756
 20
222.720747
 30
0.0
 10
13.120756
 20
221.620747
 30
0.0
  0
LWPOLYLINE
  5
164
100
AcDbEntity
  8
0
 62
1
100
AcDbPolyline
 90
2
 70
0
 10
15.420758
 20
222.720747
 30
0.0
 10
13.120756
 20
222.720747
 30
0.0
  0
LWPOLYLINE
  5
165
100
AcDbEntity
  8
0
 62
1
100
AcDbPolyline
 90
2
 70
0
 10
15.420758
 20
221.620747
 30
0.0
 10
15.420758
 20
222.720747
 30
0.0
  0
LWPOLYLINE
  5
166
100
AcDbEntity
  8
0
 62
1
100
AcDbPolyline
 90
2
 70
0
 10
20.120758
 20
221.620747
 30
0.0
 10
15.420758
 20
221.620747
 30
0.0
  0
LWPOLYLINE
  5
167
100
AcDbEntity
  8
0
 62
1
100
AcDbPolyline
 90
2
 70
0
 10
20.120758
 20
218.620747
 30
0.0
 10
20.120758
 20
221.620747
 30
0.0
  0
LWPOLYLINE
  5
168
100
AcDbEntity
  8
0
 62
1
100
AcDbPolyline
 90
2
 70
0
 10
15.420758
 20
218.620747
 30
0.0
 10
20.120758
 20
218.620747
 30
0.0
  0
LWPOLYLINE
  5
169
100
AcDbEntity
  8
0
 62
1
100
AcDbPolyline
 90
2
 70
0
 10
15.420758
 20
217.520748
 30
0.0
 10
15.420758
 20
218.620747
 30
0.0
  0
LWPOLYLINE
  5
16a
100
AcDbEntity
  8
0
 62
1
100
AcDbPolyline
 90
2
 70
0
 10
13.120756
 20
217.520748
 30
0.0
 10
15.420758
 20
217.520748
 30
0.0
  0
LWPOLYLINE
  5
16b
100
AcDbEntity
  8
0
 62
1
100
AcDbPolyline
 90
2
 70
0
 10
13.120756
 20
218.620747
 30
0.0
 10
13.120756
 20
217.520748
 30
0.0
  0
LWPOLYLINE
  5
16c
100
AcDbEntity
  8
0
 62
1
100
AcDbPolyline
 90
2
 70
0
 10
10.120757
 20
218.620747
 30
0.0
 10
13.120756
 20
218.620747
 30
0.0
  0
LWPOLYLINE
  5
16d
100
AcDbEntity
  8
0
 62
1
100
AcDbPolyline
 90
2
 70
0
 10
10.120757
 20
218.620747
 30
0.0
 10
10.120757
 20
215.120747
 30
0.0
  0
LWPOLYLINE
  5
16e
100
AcDbEntity
  8
0
 62
1
100
AcDbPolyline
 90
2
 70
0
 10
5.120756
 20
215.120747
 30
0.0
 10
10.120757
 20
215.120747
 30
0.0
  0
LWPOLYLINE
  5
16f
100
AcDbEntity
  8
0
 62
1
100
AcDbPolyline
 90
7
 70
0
 10
5.120756
 20
215.120747
 30
0.0
 10
5.120756
 20
205.120745
 30
0.0
 10
0.120758
 20
205.120745
 30
0.0
 10
0.120758
 20
155.120740
 30
0.0
 10
5.120756
 20
155.120740
 30
0.0
 10
5.120756
 20
145.120733
 30
0.0
 10
10.120757
 20
145.120733
 30
0.0
  0
LWPOLYLINE
  5
170
100
AcDbEntity
  8
0
 62
1
100
AcDbPolyline
 90
2
 70
0
 10
10.120757
 20
141.620745
 30
0.0
 10
10.120757
 20
145.120733
 30
0.0
  0
LWPOLYLINE
  5
171
100
AcDbEntity
  8
0
 62
1
100
AcDbPolyline
 90
20
 70
0
 10
10.120757
 20
141.620745
 30
0.0
 10
13.120756
 20
141.620745
 30
0.0
 10
13.120756
 20
142.720751
 30
0.0
 10
15.420758
 20
142.720751
 30
0.0
 10
15.420758
 20
141.620745
 30
0.0
 10
20.120758
 20
141.620745
 30
0.0
 10
20.120758
 20
138.620741
 30
0.0
 10
15.420758
 20
138.620741
 30
0.0
 10
15.420758
 20
137.520736
 30
0.0
 10
13.120756
 20
137.520736
 30
0.0
 10
13.120756
 20
138.620741
 30
0.0
 10
10.120757
 20
138.620741
 30
0.0
 10
10.120757
 20
135.120753
 30
0.0
 10
5.120756
 20
135.120753
 30
0.0
 10
5.120756
 20
125.120747
 30
0.0
 10
0.120758
 20
125.120747
 30
0.0
 10
0.120758
 20
75.120741
 30
0.0
 10
5.120756
 20
75.120741
 30
0.0
 10
5.120756
 20
65.120734
 30
0.0
 10
10.120757
 20
65.120734
 30
0.0
  0
LWPOLYLINE
  5
172
100
AcDbEntity
  8
0
 62
1
100
AcDbPolyline
 90
2
 70
0
 10
10.120757
 20
61.620747
 30
0.0
 10
10.120757
 20
65.120734
 30
0.0
  0
LWPOLYLINE
  5
173
100
AcDbEntity
  8
0
 62
1
100
AcDbPolyline
 90
17
 70
0
 10
10.120757
 20
61.620747
 30
0.0
 10
13.120756
 20
61.620747
 30
0.0
 10
13.120756
 20
62.720752
 30
0.0
 10
15.420758
 20
62.720752
 30
0.0
 10
15.420758
 20
61.620747
 30
0.0
 10
20.120758
 20
61.620747
 30
0.0
 10
20.120758
 20
58.620742
 30
0.0
 10
15.420758
 20
58.620742
 30
0.0
 10
15.420758
 20
57.520737
 30
0.0
 10
13.120756
 20
57.520737
 30
0.0
 10
13.120756
 20
58.620742
 30
0.0
 10
10.120757
 20
58.620742
 30
0.0
 10
10.120757
 20
55.120754
 30
0.0
 10
5.120756
 20
55.120754
 30
0.0
 10
5.120756
 20
45.120748
 30
0.0
 10
0.120758
 20
45.120748
 30
0.0
 10
0.120758
 20
0.120758
 30
0.0
  0
LWPOLYLINE
  5
174
100
AcDbEntity
  8
0
 62
1
100
AcDbPolyline
 90
2
 70
0
 10
19.120758
 20
0.120758
 30
0.0
 10
0.120758
 20
0.120758
 30
0.0
  0
LWPOLYLINE
  5
175
100
AcDbEntity
  8
0
 62
1
100
AcDbPolyline
 90
2
 70
0
 10
19.120758
 20
5.120748
 30
0.0
 10
19.120758
 20
0.120758
 30
0.0
  0
LWPOLYLINE
  5
176
100
AcDbEntity
  8
0
 62
1
100
AcDbPolyline
 90
2
 70
0
 10
29.120756
 20
5.120748
 30
0.0
 10
19.120758
 20
5.120748
 30
0.0
  0
LWPOLYLINE
  5
177
100
AcDbEntity
  8
0
 62
1
100
AcDbPolyline
 90
2
 70
0
 10
29.120756
 20
5.120748
 30
0.0
 10
29.120756
 20
10.120738
 30
0.0
  0
LWPOLYLINE
  5
178
100
AcDbEntity
  8
0
 62
1
100
AcDbPolyline
 90
2
 70
0
 10
32.620757
 20
10.120738
 30
0.0
 10
29.120756
 20
10.120738
 30
0.0
  0
LWPOLYLINE
  5
179
100
AcDbEntity
  8
0
 62
1
100
AcDbPolyline
 90
14
 70
0
 10
32.620757
 20
10.120738
 30
0.0
 10
32.620757
 20
13.120743
 30
0.0
 10
31.520757
 20
13.120743
 30
0.0
 10
31.520757
 20
15.420740
 30
0.0
 10
32.620757
 20
15.420740
 30
0.0
 10
32.620757
 20
20.120745
 30
0.0
 10
35.620756
 20
20.120745
 30
0.0
 10
35.620756
 20
15.420740
 30
0.0
 10
36.720759
 20
15.420740
 30
0.0
 10
36.720759
 20
13.120743
 30
0.0
 10
35.620756
 20
13.120743
 30
0.0
 10
35.620756
 20
10.120738
 30
0.0
 10
39.120757
 20
10.120738
 30
0.0
 10
39.120757
 20
5.120748
 30
0.0
  0
LWPOLYLINE
  5
17a
100
AcDbEntity
  8
0
 62
1
100
AcDbPolyline
 90
2
 70
0
 10
49.120758
 20
5.120748
 30
0.0
 10
39.120757
 20
5.120748
 30
0.0
  0
LWPOLYLINE
  5
17b
100
AcDbEntity
  8
0
 62
1
100
AcDbPolyline
 90
2
 70
0
 10
49.120758
 20
0.120758
 30
0.0
 10
49.120758
 20
5.120748
 30
0.0
  0
LWPOLYLINE
  5
17c
100
AcDbEntity
  8
0
 62
1
100
AcDbPolyline
 90
2
 70
0
 10
69.120758
 20
0.120758
 30
0.0
 10
49.120758
 20
0.120758
 30
0.0
  0
LWPOLYLINE
  5
17d
100
AcDbEntity
  8
0
 62
1
100
AcDbPolyline
 90
2
 70
0
 10
69.120758
 20
5.120748
 30
0.0
 10
69.120758
 20
0.120758
 30
0.0
  0
LWPOLYLINE
  5
17e
100
AcDbEntity
  8
0
 62
1
100
AcDbPolyline
 90
2
 70
0
 10
79.120757
 20
5.120748
 30
0.0
 10
69.120758
 20
5.120748
 30
0.0
  0
LWPOLYLINE
  5
17f
100
AcDbEntity
  8
0
 62
1
100
AcDbPolyline
 90
2
 70
0
 10
79.120757
 20
5.120748
 30
0.0
 10
79.120757
 20
10.120738
 30
0.0
  0
LWPOLYLINE
  5
180
100
AcDbEntity
  8
0
 62
1
100
AcDbPolyline
 90
2
 70
0
 10
82.620758
 20
10.120738
 30
0.0
 10
79.120757
 20
10.120738
 30
0.0
  0
LWPOLYLINE
  5
181
100
AcDbEntity
  8
0
 62
1
100
AcDbPolyline
 90
14
 70
0
 10
82.620758
 20
10.120738
 30
0.0
 10
82.620758
 20
13.120743
 30
0.0
 10
81.520758
 20
13.120743
 30
0.0
 10
81.520758
 20
15.420740
 30
0.0
 10
82.620758
 20
15.420740
 30
0.0
 10
82.620758
 20
20.120745
 30
0.0
 10
85.620757
 20
20.120745
 30
0.0
 10
85.620757
 20
15.420740
 30
0.0
 10
86.720758
 20
15.420740
 30
0.0
 10
86.720758
 20
13.120743
 30
0.0
 10
85.620757
 20
13.120743
 30
0.0
 10
85.620757
 20
10.120738
 30
0.0
 10
89.120757
 20
10.120738
 30
0.0
 10
89.120757
 20
5.120748
 30
0.0
  0
LWPOLYLINE
  5
182
100
AcDbEntity
  8
0
 62
1
100
AcDbPolyline
 90
2
 70
0
 10
99.120757
 20
5.120748
 30
0.0
 10
89.120757
 20
5.120748
 30
0.0
  0
LWPOLYLINE
  5
183
100
AcDbEntity
  8
0
 62
1
100
AcDbPolyline
 90
4
 70
0
 10
99.120757
 20
5.120748
 30
0.0
 10
99.120757
 20
0.120758
 30
0.0
 10
119.120758
 20
0.120758
 30
0.0
 10
119.120758
 20
5.120748
 30
0.0
  0
LWPOLYLINE
  5
184
100
AcDbEntity
  8
0
 62
1
100
AcDbPolyline
 90
2
 70
0
 10
129.120757
 20
5.120748
 30
0.0
 10
119.120758
 20
5.120748
 30
0.0
  0
LWPOLYLINE
  5
185
100
AcDbEntity
  8
0
 62
1
100
AcDbPolyline
 90
2
 70
0
 10
129.120757
 20
10.120738
 30
0.0
 10
129.120757
 20
5.120748
 30
0.0
  0
LWPOLYLINE
  5
186
100
AcDbEntity
  8
0
 62
1
100
AcDbPolyline
 90
2
 70
0
 10
132.620758
 20
10.120738
 30
0.0
 10
129.120757
 20
10.120738
 30
0.0
  0
LWPOLYLINE
  5
187
100
AcDbEntity
  8
0
 62
1
100
AcDbPolyline
 90
2
 70
0
 10
132.620758
 20
13.120743
 30
0.0
 10
132.620758
 20
10.120738
 30
0.0
  0
LWPOLYLINE
  5
188
100
AcDbEntity
  8
0
 62
1
100
AcDbPolyline
 90
2
 70
0
 10
131.520757
 20
13.120743
 30
0.0
 10
132.620758
 20
13.120743
 30
0.0
  0
LWPOLYLINE
  5
189
100
AcDbEntity
  8
0
 62
1
100
AcDbPolyline
 90
2
 70
0
 10
131.520757
 20
15.420740
 30
0.0
 10
131.520757
 20
13.120743
 30
0.0
  0
LWPOLYLINE
  5
18a
100
AcDbEntity
  8
0
 62
1
100
AcDbPolyline
 90
2
 70
0
 10
132.620758
 20
15.420740
 30
0.0
 10
131.520757
 20
15.420740
 30
0.0
  0
LWPOLYLINE
  5
18b
100
AcDbEntity
  8
0
 62
1
100
AcDbPolyline
 90
2
 70
0
 10
132.620758
 20
20.120745
 30
0.0
 10
132.620758
 20
15.420740
 30
0.0
  0
LWPOLYLINE
  5
18c
100
AcDbEntity
  8
0
 62
1
100
AcDbPolyline
 90
2
 70
0
 10
135.620757
 20
20.120745
 30
0.0
 10
132.620758
 20
20.120745
 30
0.0
  0
LWPOLYLINE
  5
18d
100
AcDbEntity
  8
0
 62
1
100
AcDbPolyline
 90
2
 70
0
 10
135.620757
 20
15.420740
 30
0.0
 10
135.620757
 20
20.120745
 30
0.0
  0
LWPOLYLINE
  5
18e
100
AcDbEntity
  8
0
 62
1
100
AcDbPolyline
 90
2
 70
0
 10
136.720757
 20
15.420740
 30
0.0
 10
135.620757
 20
15.420740
 30
0.0
  0
LWPOLYLINE
  5
18f
100
AcDbEntity
  8
0
 62
1
100
AcDbPolyline
 90
2
 70
0
 10
136.720757
 20
13.120743
 30
0.0
 10
136.720757
 20
15.420740
 30
0.0
  0
LWPOLYLINE
  5
190
100
AcDbEntity
  8
0
 62
1
100
AcDbPolyline
 90
2
 70
0
 10
135.620757
 20
13.120743
 30
0.0
 10
136.720757
 20
13.120743
 30
0.0
  0
LWPOLYLINE
  5
191
100
AcDbEntity
  8
0
 62
1
100
AcDbPolyline
 90
2
 70
0
 10
135.620757
 20
10.120738
 30
0.0
 10
135.620757
 20
13.120743
 30
0.0
  0
LWPOLYLINE
  5
192
100
AcDbEntity
  8
0
 62
1
100
AcDbPolyline
 90
2
 70
0
 10
135.620757
 20
10.120738
 30
0.0
 10
139.120758
 20
10.120738
 30
0.0
  0
LWPOLYLINE
  5
193
100
AcDbEntity
  8
0
 62
1
100
AcDbPolyline
 90
2
 70
0
 10
139.120758
 20
5.120748
 30
0.0
 10
139.120758
 20
10.120738
 30
0.0
  0
LWPOLYLINE
  5
194
100
AcDbEntity
  8
0
 62
1
100
AcDbPolyline
 90
2
 70
0
 10
149.120757
 20
5.120748
 30
0.0
 10
139.120758
 20
5.120748
 30
0.0
  0
LWPOLYLINE
  5
195
100
AcDbEntity
  8
0
 62
1
100
AcDbPolyline
 90
2
 70
0
 10
149.120757
 20
0.120758
 30
0.0
 10
149.120757
 20
5.120748
 30
0.0
  0
LWPOLYLINE
  5
196
100
AcDbEntity
  8
0
 62
1
100
AcDbPolyline
 90
2
 70
0
 10
169.120756
 20
0.120758
 30
0.0
 10
149.120757
 20
0.120758
 30
0.0
  0
LWPOLYLINE
  5
197
100
AcDbEntity
  8
0
 62
1
100
AcDbPolyline
 90
2
 70
0
 10
169.120756
 20
5.120748
 30
0.0
 10
169.120756
 20
0.120758
 30
0.0
  0
LWPOLYLINE
  5
198
100
AcDbEntity
  8
0
 62
1
100
AcDbPolyline
 90
2
 70
0
 10
179.120758
 20
5.120748
 30
0.0
 10
169.120756
 20
5.120748
 30
0.0
  0
LWPOLYLINE
  5
199
100
AcDbEntity
  8
0
 62
1
100
AcDbPolyline
 90
2
 70
0
 10
179.120758
 20
10.120738
 30
0.0
 10
179.120758
 20
5.120748
 30
0.0
  0
LWPOLYLINE
  5
19a
100
AcDbEntity
  8
0
 62
1
100
AcDbPolyline
 90
2
 70
0
 10
182.620759
 20
10.120738
 30
0.0
 10
179.120758
 20
10.120738
 30
0.0
  0
LWPOLYLINE
  5
19b
100
AcDbEntity
  8
0
 62
1
100
AcDbPolyline
 90
2
 70
0
 10
182.620759
 20
13.120743
 30
0.0
 10
182.620759
 20
10.120738
 30
0.0
  0
LWPOLYLINE
  5
19c
100
AcDbEntity
  8
0
 62
1
100
AcDbPolyline
 90
2
 70
0
 10
181.520756
 20
13.120743
 30
0.0
 10
182.620759
 20
13.120743
 30
0.0
  0
LWPOLYLINE
  5
19d
100
AcDbEntity
  8
0
 62
1
100
AcDbPolyline
 90
2
 70
0
 10
181.520756
 20
15.420740
 30
0.0
 10
181.520756
 20
13.120743
 30
0.0
  0
LWPOLYLINE
  5
19e
100
AcDbEntity
  8
0
 62
1
100
AcDbPolyline
 90
2
 70
0
 10
182.620759
 20
15.420740
 30
0.0
 10
181.520756
 20
15.420740
 30
0.0
  0
LWPOLYLINE
  5
19f
100
AcDbEntity
  8
0
 62
1
100
AcDbPolyline
 90
2
 70
0
 10
182.620759
 20
20.120745
 30
0.0
 10
182.620759
 20
15.420740
 30
0.0
  0
LWPOLYLINE
  5
1a0
100
AcDbEntity
  8
0
 62
1
100
AcDbPolyline
 90
2
 70
0
 10
185.620758
 20
20.120745
 30
0.0
 10
182.620759
 20
20.120745
 30
0.0
  0
LWPOLYLINE
  5
1a1
100
AcDbEntity
  8
0
 62
1
100
AcDbPolyline
 90
2
 70
0
 10
185.620758
 20
15.420740
 30
0.0
 10
185.620758
 20
20.120745
 30
0.0
  0
LWPOLYLINE
  5
1a2
100
AcDbEntity
  8
0
 62
1
100
AcDbPolyline
 90
2
 70
0
 10
186.720758
 20
15.420740
 30
0.0
 10
185.620758
 20
15.420740
 30
0.0
  0
LWPOLYLINE
  5
1a3
100
AcDbEntity
  8
0
 62
1
100
AcDbPolyline
 90
2
 70
0
 10
186.720758
 20
13.120743
 30
0.0
 10
186.720758
 20
15.420740
 30
0.0
  0
LWPOLYLINE
  5
1a4
100
AcDbEntity
  8
0
 62
1
100
AcDbPolyline
 90
2
 70
0
 10
185.620758
 20
13.120743
 30
0.0
 10
186.720758
 20
13.120743
 30
0.0
  0
LWPOLYLINE
  5
1a5
100
AcDbEntity
  8
0
 62
1
100
AcDbPolyline
 90
2
 70
0
 10
185.620758
 20
10.120738
 30
0.0
 10
185.620758
 20
13.120743
 30
0.0
  0
LWPOLYLINE
  5
1a6
100
AcDbEntity
  8
0
 62
1
100
AcDbPolyline
 90
2
 70
0
 10
185.620758
 20
10.120738
 30
0.0
 10
189.120759
 20
10.120738
 30
0.0
  0
LWPOLYLINE
  5
1a7
100
AcDbEntity
  8
0
 62
1
100
AcDbPolyline
 90
2
 70
0
 10
189.120759
 20
5.120748
 30
0.0
 10
189.120759
 20
10.120738
 30
0.0
  0
LWPOLYLINE
  5
1a8
100
AcDbEntity
  8
0
 62
1
100
AcDbPolyline
 90
2
 70
0
 10
199.120757
 20
5.120748
 30
0.0
 10
189.120759
 20
5.120748
 30
0.0
  0
LWPOLYLINE
  5
1a9
100
AcDbEntity
  8
0
 62
1
100
AcDbPolyline
 90
2
 70
0
 10
199.120757
 20
0.120758
 30
0.0
 10
199.120757
 20
5.120748
 30
0.0
  0
LWPOLYLINE
  5
1aa
100
AcDbEntity
  8
0
 62
1
100
AcDbPolyline
 90
2
 70
0
 10
218.120756
 20
0.120758
 30
0.0
 10
199.120757
 20
0.120758
 30
0.0
  0
LWPOLYLINE
  5
1ab
100
AcDbEntity
  8
0
 62
1
100
AcDbPolyline
 90
2
 70
0
 10
218.120756
 20
45.120748
 30
0.0
 10
218.120756
 20
0.120758
 30
0.0
  0
LWPOLYLINE
  5
1ac
100
AcDbEntity
  8
0
 62
1
100
AcDbPolyline
 90
2
 70
0
 10
213.120758
 20
45.120748
 30
0.0
 10
218.120756
 20
45.120748
 30
0.0
  0
LWPOLYLINE
  5
1ad
100
AcDbEntity
  8
0
 62
1
100
AcDbPolyline
 90
2
 70
0
 10
213.120758
 20
45.120748
 30
0.0
 10
213.120758
 20
55.120754
 30
0.0
  0
LWPOLYLINE
  5
1ae
100
AcDbEntity
  8
0
 62
1
100
AcDbPolyline
 90
2
 70
0
 10
208.120758
 20
55.120754
 30
0.0
 10
213.120758
 20
55.120754
 30
0.0
  0
LWPOLYLINE
  5
1af
100
AcDbEntity
  8
0
 62
1
100
AcDbPolyline
 90
2
 70
0
 10
208.120758
 20
58.620742
 30
0.0
 10
208.120758
 20
55.120754
 30
0.0
  0
LWPOLYLINE
  5
1b0
100
AcDbEntity
  8
0
 62
1
100
AcDbPolyline
 90
2
 70
0
 10
205.120759
 20
58.620742
 30
0.0
 10
208.120758
 20
58.620742
 30
0.0
  0
LWPOLYLINE
  5
1b1
100
AcDbEntity
  8
0
 62
1
100
AcDbPolyline
 90
2
 70
0
 10
205.120759
 20
57.520737
 30
0.0
 10
205.120759
 20
58.620742
 30
0.0
  0
LWPOLYLINE
  5
1b2
100
AcDbEntity
  8
0
 62
1
100
AcDbPolyline
 90
2
 70
0
 10
202.820757
 20
57.520737
 30
0.0
 10
205.120759
 20
57.520737
 30
0.0
  0
LWPOLYLINE
  5
1b3
100
AcDbEntity
  8
0
 62
1
100
AcDbPolyline
 90
2
 70
0
 10
202.820757
 20
58.620742
 30
0.0
 10
202.820757
 20
57.520737
 30
0.0
  0
LWPOLYLINE
  5
1b4
100
AcDbEntity
  8
0
 62
1
100
AcDbPolyline
 90
2
 70
0
 10
198.120757
 20
58.620742
 30
0.0
 10
202.820757
 20
58.620742
 30
0.0
  0
LWPOLYLINE
  5
1b5
100
AcDbEntity
  8
0
 62
1
100
AcDbPolyline
 90
2
 70
0
 10
198.120757
 20
61.620747
 30
0.0
 10
198.120757
 20
58.620742
 30
0.0
  0
LWPOLYLINE
  5
1b6
100
AcDbEntity
  8
0
 62
1
100
AcDbPolyline
 90
2
 70
0
 10
202.820757
 20
61.620747
 30
0.0
 10
198.120757
 20
61.620747
 30
0.0
  0
LWPOLYLINE
  5
1b7
100
AcDbEntity
  8
0
 62
1
100
AcDbPolyline
 90
2
 70
0
 10
202.820757
 20
62.720752
 30
0.0
 10
202.820757
 20
61.620747
 30
0.0
  0
LWPOLYLINE
  5
1b8
100
AcDbEntity
  8
0
 62
1
100
AcDbPolyline
 90
2
 70
0
 10
205.120759
 20
62.720752
 30
0.0
 10
202.820757
 20
62.720752
 30
0.0
  0
LWPOLYLINE
  5
1b9
100
AcDbEntity
  8
0
 62
1
100
AcDbPolyline
 90
2
 70
0
 10
205.120759
 20
61.620747
 30
0.0
 10
205.120759
 20
62.720752
 30
0.0
  0
LWPOLYLINE
  5
1ba
100
AcDbEntity
  8
0
 62
1
100
AcDbPolyline
 90
2
 70
0
 10
208.120758
 20
61.620747
 30
0.0
 10
205.120759
 20
61.620747
 30
0.0
  0
LWPOLYLINE
  5
1bb
100
AcDbEntity
  8
0
 62
1
100
AcDbPolyline
 90
2
 70
0
 10
208.120758
 20
61.620747
 30
0.0
 10
208.120758
 20
65.120734
 30
0.0
  0
LWPOLYLINE
  5
1bc
100
AcDbEntity
  8
0
 62
1
100
AcDbPolyline
 90
2
 70
0
 10
213.120758
 20
65.120734
 30
0.0
 10
208.120758
 20
65.120734
 30
0.0
  0
LWPOLYLINE
  5
1bd
100
AcDbEntity
  8
0
 62
1
100
AcDbPolyline
 90
2
 70
0
 10
213.120758
 20
75.120741
 30
0.0
 10
213.120758
 20
65.120734
 30
0.0
  0
LWPOLYLINE
  5
1be
100
AcDbEntity
  8
0
 62
1
100
AcDbPolyline
 90
2
 70
0
 10
218.120756
 20
75.120741
 30
0.0
 10
213.120758
 20
75.120741
 30
0.0
  0
LWPOLYLINE
  5
1bf
100
AcDbEntity
  8
0
 62
1
100
AcDbPolyline
 90
2
 70
0
 10
218.120756
 20
125.120747
 30
0.0
 10
218.120756
 20
75.120741
 30
0.0
  0
LWPOLYLINE
  5
1c0
100
AcDbEntity
  8
0
 62
1
100
AcDbPolyline
 90
2
 70
0
 10
213.120758
 20
125.120747
 30
0.0
 10
218.120756
 20
125.120747
 30
0.0
  0
LWPOLYLINE
  5
1c1
100
AcDbEntity
  8
0
 62
1
100
AcDbPolyline
 90
2
 70
0
 10
213.120758
 20
125.120747
 30
0.0
 10
213.120758
 20
135.120753
 30
0.0
  0
LWPOLYLINE
  5
1c2
100
AcDbEntity
  8
0
 62
1
100
AcDbPolyline
 90
2
 70
0
 10
208.120758
 20
135.120753
 30
0.0
 10
213.120758
 20
135.120753
 30
0.0
  0
LWPOLYLINE
  5
1c3
100
AcDbEntity
  8
0
 62
1
100
AcDbPolyline
 90
2
 70
0
 10
208.120758
 20
138.620741
 30
0.0
 10
208.120758
 20
135.120753
 30
0.0
  0
LWPOLYLINE
  5
1c4
100
AcDbEntity
  8
0
 62
1
100
AcDbPolyline
 90
2
 70
0
 10
205.120759
 20
138.620741
 30
0.0
 10
208.120758
 20
138.620741
 30
0.0
  0
LWPOLYLINE
  5
1c5
100
AcDbEntity
  8
0
 62
1
100
AcDbPolyline
 90
2
 70
0
 10
205.120759
 20
137.520736
 30
0.0
 10
205.120759
 20
138.620741
 30
0.0
  0
LWPOLYLINE
  5
1c6
100
AcDbEntity
  8
0
 62
1
100
AcDbPolyline
 90
2
 70
0
 10
202.820757
 20
137.520736
 30
0.0
 10
205.120759
 20
137.520736
 30
0.0
  0
LWPOLYLINE
  5
1c7
100
AcDbEntity
  8
0
 62
1
100
AcDbPolyline
 90
2
 70
0
 10
202.820757
 20
138.620741
 30
0.0
 10
202.820757
 20
137.520736
 30
0.0
  0
LWPOLYLINE
  5
1c8
100
AcDbEntity
  8
0
 62
1
100
AcDbPolyline
 90
2
 70
0
 10
198.120757
 20
138.620741
 30
0.0
 10
202.820757
 20
138.620741
 30
0.0
  0
LWPOLYLINE
  5
1c9
100
AcDbEntity
  8
0
 62
1
100
AcDbPolyline
 90
2
 70
0
 10
198.120757
 20
141.620745
 30
0.0
 10
198.120757
 20
138.620741
 30
0.0
  0
LWPOLYLINE
  5
1ca
100
AcDbEntity
  8
0
 62
1
100
AcDbPolyline
 90
2
 70
0
 10
202.820757
 20
141.620745
 30
0.0
 10
198.120757
 20
141.620745
 30
0.0
  0
LWPOLYLINE
  5
1cb
100
AcDbEntity
  8
0
 62
1
100
AcDbPolyline
 90
2
 70
0
 10
202.820757
 20
142.720751
 30
0.0
 10
202.820757
 20
141.620745
 30
0.0
  0
LWPOLYLINE
  5
1cc
100
AcDbEntity
  8
0
 62
1
100
AcDbPolyline
 90
2
 70
0
 10
205.120759
 20
142.720751
 30
0.0
 10
202.820757
 20
142.720751
 30
0.0
  0
LWPOLYLINE
  5
1cd
100
AcDbEntity
  8
0
 62
1
100
AcDbPolyline
 90
2
 70
0
 10
205.120759
 20
141.620745
 30
0.0
 10
205.120759
 20
142.720751
 30
0.0
  0
LWPOLYLINE
  5
1ce
100
AcDbEntity
  8
0
 62
1
100
AcDbPolyline
 90
2
 70
0
 10
208.120758
 20
141.620745
 30
0.0
 10
205.120759
 20
141.620745
 30
0.0
  0
LWPOLYLINE
  5
1cf
100
AcDbEntity
  8
0
 62
1
100
AcDbPolyline
 90
2
 70
0
 10
208.120758
 20
141.620745
 30
0.0
 10
208.120758
 20
145.120733
 30
0.0
  0
LWPOLYLINE
  5
1d0
100
AcDbEntity
  8
0
 62
1
100
AcDbPolyline
 90
2
 70
0
 10
213.120758
 20
145.120733
 30
0.0
 10
208.120758
 20
145.120733
 30
0.0
  0
LWPOLYLINE
  5
1d1
100
AcDbEntity
  8
0
 62
1
100
AcDbPolyline
 90
2
 70
0
 10
213.120758
 20
155.120740
 30
0.0
 10
213.120758
 20
145.120733
 30
0.0
  0
LWPOLYLINE
  5
1d2
100
AcDbEntity
  8
0
 62
1
100
AcDbPolyline
 90
2
 70
0
 10
218.120756
 20
155.120740
 30
0.0
 10
213.120758
 20
155.120740
 30
0.0
  0
LWPOLYLINE
  5
1d3
100
AcDbEntity
  8
0
 62
1
100
AcDbPolyline
 90
2
 70
0
 10
218.120756
 20
205.120745
 30
0.0
 10
218.120756
 20
155.120740
 30
0.0
  0
LWPOLYLINE
  5
1d4
100
AcDbEntity
  8
0
 62
1
100
AcDbPolyline
 90
2
 70
0
 10
213.120758
 20
205.120745
 30
0.0
 10
218.120756
 20
205.120745
 30
0.0
  0
LWPOLYLINE
  5
1d5
100
AcDbEntity
  8
0
 62
1
100
AcDbPolyline
 90
2
 70
0
 10
99.120757
 20
125.070740
 30
0.0
 10
99.120757
 20
130.120737
 30
0.0
  0
LWPOLYLINE
  5
1d6
100
AcDbEntity
  8
0
 62
1
100
AcDbPolyline
 90
2
 70
0
 10
94.120758
 20
125.070740
 30
0.0
 10
99.120757
 20
125.070740
 30
0.0
  0
LWPOLYLINE
  5
1d7
100
AcDbEntity
  8
0
 62
1
100
AcDbPolyline
 90
3
 70
0
 10
94.120758
 20
125.070740
 30
0.0
 10
94.120758
 20
130.120737
 30
0.0
 10
99.120757
 20
130.120737
 30
0.0
  0
LWPOLYLINE
  5
1d8
100
AcDbEntity
  8
0
 62
1
100
AcDbPolyline
 90
2
 70
0
 10
94.120758
 20
270.120745
 30
0.0
 10
99.120757
 20
270.120745
 30
0.0
  0
LWPOLYLINE
  5
1d9
100
AcDbEntity
  8
0
 62
1
100
AcDbPolyline
 90
2
 70
0
 10
94.120758
 20
275.170747
 30
0.0
 10
94.120758
 20
270.120745
 30
0.0
  0
LWPOLYLINE
  5
1da
100
AcDbEntity
  8
0
 62
1
100
AcDbPolyline
 90
3
 70
0
 10
94.120758
 20
275.170747
 30
0.0
 10
99.120757
 20
275.170747
 30
0.0
 10
99.120757
 20
270.120745
 30
0.0
  0
LWPOLYLINE
  5
1db
100
AcDbEntity
  8
0
 62
1
100
AcDbPolyline
 90
2
 70
0
 10
134.120757
 20
275.170747
 30
0.0
 10
134.120757
 20
270.120745
 30
0.0
  0
LWPOLYLINE
  5
1dc
100
AcDbEntity
  8
0
 62
1
100
AcDbPolyline
 90
2
 70
0
 10
139.120758
 20
275.170747
 30
0.0
 10
134.120757
 20
275.170747
 30
0.0
  0
LWPOLYLINE
  5
1dd
100
AcDbEntity
  8
0
 62
1
100
AcDbPolyline
 90
3
 70
0
 10
139.120758
 20
275.170747
 30
0.0
 10
139.120758
 20
270.120745
 30
0.0
 10
134.120757
 20
270.120745
 30
0.0
  0
LWPOLYLINE
  5
1de
100
AcDbEntity
  8
0
 62
1
100
AcDbPolyline
 90
3
 70
0
 10
124.120757
 20
275.170747
 30
0.0
 10
124.120757
 20
270.120745
 30
0.0
 10
119.120758
 20
270.120745
 30
0.0
  0
LWPOLYLINE
  5
1df
100
AcDbEntity
  8
0
 62
1
100
AcDbPolyline
 90
2
 70
0
 10
119.120758
 20
275.170747
 30
0.0
 10
119.120758
 20
270.120745
 30
0.0
  0
LWPOLYLINE
  5
1e0
100
AcDbEntity
  8
0
 62
1
100
AcDbPolyline
 90
2
 70
0
 10
124.120757
 20
275.170747
 30
0.0
 10
119.120758
 20
275.170747
 30
0.0
  0
LWPOLYLINE
  5
1e1
100
AcDbEntity
  8
0
 62
1
100
AcDbPolyline
 90
3
 70
0
 10
79.120757
 20
275.170747
 30
0.0
 10
84.120757
 20
275.170747
 30
0.0
 10
84.120757
 20
270.120745
 30
0.0
  0
LWPOLYLINE
  5
1e2
100
AcDbEntity
  8
0
 62
1
100
AcDbPolyline
 90
2
 70
0
 10
79.120757
 20
270.120745
 30
0.0
 10
84.120757
 20
270.120745
 30
0.0
  0
LWPOLYLINE
  5
1e3
100
AcDbEntity
  8
0
 62
1
100
AcDbPolyline
 90
2
 70
0
 10
79.120757
 20
275.170747
 30
0.0
 10
79.120757
 20
270.120745
 30
0.0
  0
LWPOLYLINE
  5
1e4
100
AcDbEntity
  8
0
 62
1
100
AcDbPolyline
 90
3
 70
0
 10
79.120757
 20
125.070740
 30
0.0
 10
79.120757
 20
130.120737
 30
0.0
 10
84.120757
 20
130.120737
 30
0.0
  0
LWPOLYLINE
  5
1e5
100
AcDbEntity
  8
0
 62
1
100
AcDbPolyline
 90
2
 70
0
 10
84.120757
 20
125.070740
 30
0.0
 10
84.120757
 20
130.120737
 30
0.0
  0
LWPOLYLINE
  5
1e6
100
AcDbEntity
  8
0
 62
1
100
AcDbPolyline
 90
2
 70
0
 10
79.120757
 20
125.070740
 30
0.0
 10
84.120757
 20
125.070740
 30
0.0
  0
LWPOLYLINE
  5
1e7
100
AcDbEntity
  8
0
 62
1
100
AcDbPolyline
 90
3
 70
0
 10
124.120757
 20
125.070740
 30
0.0
 10
119.120758
 20
125.070740
 30
0.0
 10
119.120758
 20
130.120737
 30
0.0
  0
LWPOLYLINE
  5
1e8
100
AcDbEntity
  8
0
 62
1
100
AcDbPolyline
 90
2
 70
0
 10
124.120757
 20
130.120737
 30
0.0
 10
119.120758
 20
130.120737
 30
0.0
  0
LWPOLYLINE
  5
1e9
100
AcDbEntity
  8
0
 62
1
100
AcDbPolyline
 90
2
 70
0
 10
124.120757
 20
125.070740
 30
0.0
 10
124.120757
 20
130.120737
 30
0.0
  0
LWPOLYLINE
  5
1ea
100
AcDbEntity
  8
0
 62
1
100
AcDbPolyline
 90
2
 70
0
 10
139.120758
 20
125.070740
 30
0.0
 10
139.120758
 20
130.120737
 30
0.0
  0
LWPOLYLINE
  5
1eb
100
AcDbEntity
  8
0
 62
1
100
AcDbPolyline
 90
3
 70
0
 10
139.120758
 20
125.070740
 30
0.0
 10
134.120757
 20
125.070740
 30
0.0
 10
134.120757
 20
130.120737
 30
0.0
  0
SPLINE
  5
1ec
100
AcDbEntity
  8
0
 62
1
100
AcDbSpline
 70
8
 71
3
 72
8
 73
4
 74
0
 40
0
 40
0
 40
0
 40
0
 40
1
 40
1
 40
1
 40
1
 10
90.620757
 20
127.595738
 30
0.0
 10
90.620757
 20
128.131637
 30
0.0
 10
90.334859
 20
128.626827
 30
0.0
 10
89.870757
 20
128.894777
 30
0.0
  0
SPLINE
  5
1ed
100
AcDbEntity
  8
0
 62
1
100
AcDbSpline
 70
8
 71
3
 72
8
 73
4
 74
0
 40
0
 40
0
 40
0
 40
0
 40
1
 40
1
 40
1
 40
1
 10
89.870757
 20
128.894777
 30
0.0
 10
89.406656
 20
129.162726
 30
0.0
 10
88.834859
 20
129.162726
 30
0.0
 10
88.370757
 20
128.894777
 30
0.0
  0
SPLINE
  5
1ee
100
AcDbEntity
  8
0
 62
1
100
AcDbSpline
 70
8
 71
3
 72
8
 73
4
 74
0
 40
0
 40
0
 40
0
 40
0
 40
1
 40
1
 40
1
 40
1
 10
88.370757
 20
128.894777
 30
0.0
 10
87.906656
 20
128.626827
 30
0.0
 10
87.620757
 20
128.131637
 30
0.0
 10
87.620757
 20
127.595738
 30
0.0
  0
SPLINE
  5
1ef
100
AcDbEntity
  8
0
 62
1
100
AcDbSpline
 70
8
 71
3
 72
8
 73
4
 74
0
 40
0
 40
0
 40
0
 40
0
 40
1
 40
1
 40
1
 40
1
 10
87.620757
 20
127.595738
 30
0.0
 10
87.620757
 20
127.059840
 30
0.0
 10
87.906656
 20
126.564650
 30
0.0
 10
88.370757
 20
126.296700
 30
0.0
  0
SPLINE
  5
1f0
100
AcDbEntity
  8
0
 62
1
100
AcDbSpline
 70
8
 71
3
 72
8
 73
4
 74
0
 40
0
 40
0
 40
0
 40
0
 40
1
 40
1
 40
1
 40
1
 10
88.370757
 20
126.296700
 30
0.0
 10
88.834859
 20
126.028751
 30
0.0
 10
89.406656
 20
126.028751
 30
0.0
 10
89.870757
 20
126.296700
 30
0.0
  0
SPLINE
  5
1f1
100
AcDbEntity
  8
0
 62
1
100
AcDbSpline
 70
8
 71
3
 72
8
 73
4
 74
0
 40
0
 40
0
 40
0
 40
0
 40
1
 40
1
 40
1
 40
1
 10
89.870757
 20
126.296700
 30
0.0
 10
90.334859
 20
126.564650
 30
0.0
 10
90.620757
 20
127.059840
 30
0.0
 10
90.620757
 20
127.595738
 30
0.0
  0
LWPOLYLINE
  5
1f2
100
AcDbEntity
  8
0
 62
1
100
AcDbPolyline
 90
2
 70
0
 10
139.120758
 20
130.120737
 30
0.0
 10
134.120757
 20
130.120737
 30
0.0
  0
SPLINE
  5
1f3
100
AcDbEntity
  8
0
 62
1
100
AcDbSpline
 70
8
 71
3
 72
8
 73
4
 74
0
 40
0
 40
0
 40
0
 40
0
 40
1
 40
1
 40
1
 40
1
 10
130.620758
 20
127.595738
 30
0.0
 10
130.620758
 20
128.131637
 30
0.0
 10
130.334859
 20
128.626827
 30
0.0
 10
129.870758
 20
128.894777
 30
0.0
  0
SPLINE
  5
1f4
100
AcDbEntity
  8
0
 62
1
100
AcDbSpline
 70
8
 71
3
 72
8
 73
4
 74
0
 40
0
 40
0
 40
0
 40
0
 40
1
 40
1
 40
1
 40
1
 10
129.870758
 20
128.894777
 30
0.0
 10
129.406656
 20
129.162726
 30
0.0
 10
128.834859
 20
129.162726
 30
0.0
 10
128.370758
 20
128.894777
 30
0.0
  0
SPLINE
  5
1f5
100
AcDbEntity
  8
0
 62
1
100
AcDbSpline
 70
8
 71
3
 72
8
 73
4
 74
0
 40
0
 40
0
 40
0
 40
0
 40
1
 40
1
 40
1
 40
1
 10
128.370758
 20
128.894777
 30
0.0
 10
127.906656
 20
128.626827
 30
0.0
 10
127.620757
 20
128.131637
 30
0.0
 10
127.620757
 20
127.595738
 30
0.0
  0
SPLINE
  5
1f6
100
AcDbEntity
  8
0
 62
1
100
AcDbSpline
 70
8
 71
3
 72
8
 73
4
 74
0
 40
0
 40
0
 40
0
 40
0
 40
1
 40
1
 40
1
 40
1
 10
127.620757
 20
127.595738
 30
0.0
 10
127.620757
 20
127.059840
 30
0.0
 10
127.906656
 20
126.564650
 30
0.0
 10
128.370758
 20
126.296700
 30
0.0
  0
SPLINE
  5
1f7
100
AcDbEntity
  8
0
 62
1
100
AcDbSpline
 70
8
 71
3
 72
8
 73
4
 74
0
 40
0
 40
0
 40
0
 40
0
 40
1
 40
1
 40
1
 40
1
 10
128.370758
 20
126.296700
 30
0.0
 10
128.834859
 20
126.028751
 30
0.0
 10
129.406656
 20
126.028751
 30
0.0
 10
129.870758
 20
126.296700
 30
0.0
  0
SPLINE
  5
1f8
100
AcDbEntity
  8
0
 62
1
100
AcDbSpline
 70
8
 71
3
 72
8
 73
4
 74
0
 40
0
 40
0
 40
0
 40
0
 40
1
 40
1
 40
1
 40
1
 10
129.870758
 20
126.296700
 30
0.0
 10
130.334859
 20
126.564650
 30
0.0
 10
130.620758
 20
127.059840
 30
0.0
 10
130.620758
 20
127.595738
 30
0.0
  0
LWPOLYLINE
  5
1f9
100
AcDbEntity
  8
0
 62
1
100
AcDbPolyline
 90
1
 70
1
 10
90.620757
 20
127.595738
 30
0.0
  0
LWPOLYLINE
  5
1fa
100
AcDbEntity
  8
0
 62
1
100
AcDbPolyline
 90
1
 70
1
 10
130.620758
 20
127.595738
 30
0.0
  0
ENDSEC
  0
SECTION
  2
OBJECTS
  0
DICTIONARY
  5
C
330
0
100
AcDbDictionary
  3
ACAD_GROUP
350
D
  3
ACAD_MLINESTYLE
350
17
  0
DICTIONARY
  5
D
330
C
100
AcDbDictionary
  0
DICTIONARY
  5
1A
330
C
100
AcDbDictionary
  0
DICTIONARY
  5
17
330
C
100
AcDbDictionary
  3
STANDARD
350
18
  0
DICTIONARY
  5
19
330
C
100
AcDbDictionary
  0
ENDSEC
  0
EOF
